#N canvas 112 120 1157 516 12;
#X msg 342 -156 sendtyped resetMeters f 1;
#X msg 340 -177 sendtyped t/pause f 1;
#X obj 104 -304 tgl 15 0 empty empty empty 17 7 0 10 -262144 -1 -1
1 1;
#X obj 104 -353 delay 20;
#X msg 131 -305 0.5;
#X obj 669 -98 r programNumber;
#X msg 663 27 sendtyped /changeReferenceToNumber f \$1;
#X obj 658 -30 expr 0.03125 * $i1 + 0.03125;
#X obj 666 -5 expr 0.03125 * $i1 - 0.03125;
#X obj 670 -74 moses 18;
#X msg 106 -282 sendtyped /toggleMCompare f \$1;
#X msg 54 -333 sendtyped /midiReferenceAB f 1;
#X msg 192 -55 sendtyped /toggleMuteLocalSignal f \$1;
#X msg 292 -90 sendtyped /toggleEnableReceiveSignal f \$1;
#X msg 104 -17 sendtyped /toggleMCompare f \$1;
#X obj 56 -379 r isReferenceTrack;
#X obj -24 -175 r toggleSwitchExtSoundOff;
#X floatatom -24 -148 5 0 0 0 - - -;
#X obj -60 -7 s toREAPER;
#X msg -94 -85 sendtyped /toggleSendToExtStudio f \$1;
#X msg 191 -81 0;
#X msg 291 -117 0;
#X obj 266 120 outlet;
#X obj 52 -235 s \$0-toout;
#X obj 105 72 r \$0-toout1;
#X obj 135 121 outlet;
#X floatatom -12 -123 5 0 0 0 - - -;
#X obj 617 104 oscformat -f f changeReferenceToNumber;
#X obj 618 126 s sendOutOscToExtReaper;
#X obj 679 61 bng 15 250 50 0 empty empty empty 17 7 0 10 -262144 -1
-1;
#X connect 2 0 10 0;
#X connect 2 0 14 0;
#X connect 3 0 2 0;
#X connect 5 0 9 0;
#X connect 6 0 22 0;
#X connect 6 0 29 0;
#X connect 6 0 25 0;
#X connect 8 0 6 0;
#X connect 9 0 8 0;
#X connect 10 0 23 0;
#X connect 11 0 23 0;
#X connect 12 0 22 0;
#X connect 12 0 25 0;
#X connect 13 0 22 0;
#X connect 13 0 25 0;
#X connect 14 0 22 0;
#X connect 14 0 25 0;
#X connect 15 0 11 0;
#X connect 15 0 3 0;
#X connect 16 0 19 0;
#X connect 16 0 17 0;
#X connect 16 0 20 0;
#X connect 16 0 21 0;
#X connect 19 0 18 0;
#X connect 20 0 12 0;
#X connect 21 0 13 0;
#X connect 24 0 25 0;
#X connect 26 0 19 0;
