#N canvas 968 313 376 113 10;
#N canvas 704 491 1083 426 midicontrollers 0;
#X obj 44 176 s midicntrls;
#X msg 31 147 0;
#X obj 1 118 loadbang;
#X obj 373 81 spigot;
#X obj 297 59 pipe 1;
#X obj 297 36 notein;
#X floatatom 367 30 5 0 0 0 - - -;
#X obj 914 250 tgl 15 0 empty empty empty 17 7 0 10 -262144 -1 -1 1
1;
#X obj 934 250 bng 15 250 50 0 empty empty empty 17 7 0 10 -262144
-1 -1;
#X obj 864 165 tgl 15 0 empty empty empty 17 7 0 10 -162280 -1 -1 1
1;
#X obj 883 165 bng 15 250 50 0 empty empty empty 17 7 0 10 -262144
-1 -1;
#X obj 815 263 tgl 15 0 empty empty empty 17 7 0 10 -262144 -1 -1 0
1;
#X obj 835 263 bng 15 250 50 0 empty empty empty 17 7 0 10 -262144
-1 -1;
#X obj 766 165 tgl 15 0 empty empty empty 17 7 0 10 -162280 -1 -1 1
1;
#X obj 786 165 bng 15 250 50 0 empty empty empty 17 7 0 10 -262144
-1 -1;
#X obj 717 262 tgl 15 0 empty empty empty 17 7 0 10 -262144 -1 -1 0
1;
#X obj 737 262 bng 15 250 50 0 empty empty empty 17 7 0 10 -262144
-1 -1;
#X obj 667 164 tgl 15 0 empty empty empty 17 7 0 10 -162280 -1 -1 0
1;
#X obj 687 164 bng 15 250 50 0 empty empty empty 17 7 0 10 -262144
-1 -1;
#X obj 618 262 tgl 15 0 empty empty empty 17 7 0 10 -262144 -1 -1 0
1;
#X obj 638 262 bng 15 250 50 0 empty empty empty 17 7 0 10 -262144
-1 -1;
#X obj 569 261 tgl 15 0 empty empty empty 17 7 0 10 -262144 -1 -1 0
1;
#X obj 589 261 bng 15 250 50 0 empty empty empty 17 7 0 10 -262144
-1 -1;
#X text 913 277 35 B3;
#X text 861 145 34 Bb3;
#X text 814 246 33 A3;
#X text 761 148 32 Ab3;
#X text 719 242 31 G3;
#X text 619 243 29 F3;
#X text 571 243 28 E3;
#X text 670 148 30 F#;
#X obj 520 164 tgl 15 0 empty empty empty 17 7 0 10 -162280 -1 -1 0
1;
#X obj 540 164 bng 15 250 50 0 empty empty empty 17 7 0 10 -262144
-1 -1;
#X obj 471 262 tgl 15 0 empty empty empty 17 7 0 10 -262144 -1 -1 1
1;
#X obj 491 262 bng 15 250 50 0 empty empty empty 17 7 0 10 -262144
-1 -1;
#X obj 422 164 tgl 15 0 empty empty empty 17 7 0 10 -162280 -1 -1 0
1;
#X obj 442 164 bng 15 250 50 0 empty empty empty 17 7 0 10 -262144
-1 -1;
#X obj 393 263 bng 15 250 50 0 empty empty empty 17 7 0 10 -262144
-1 -1;
#X text 516 147 27 Eb3;
#X text 470 243 26 D3;
#X text 418 146 25 C#3;
#X text 370 244 24 C3;
#X obj 373 263 tgl 15 0 empty empty empty 17 7 0 10 -262144 -1 -1 1
1;
#X msg 103 403 /_pitchbend;
#X floatatom 114 376 5 0 0 0 - - -;
#X obj 195 351 ctlin 1 1;
#X obj 281 217 ctlin 7 1;
#X obj 101 219 ctlin 74 1;
#X obj 188 219 ctlin 79 1;
#X obj 103 349 bendin;
#X msg 49 332 8192;
#X floatatom 195 390 5 0 0 0 - - -;
#X obj 195 408 f;
#X floatatom 195 427 5 0 0 0 - - -;
#X obj 195 371 / 127;
#X floatatom 281 259 5 0 0 0 - - -;
#X obj 281 277 f;
#X obj 281 240 / 127;
#X floatatom 189 259 5 0 0 0 - - -;
#X obj 189 277 f;
#X obj 189 240 / 127;
#X floatatom 101 261 5 0 0 0 - - -;
#X obj 101 279 f;
#X obj 101 242 / 127;
#X obj 189 316 s midiPhones1Volume;
#X obj 44 299 s midiSpeakers3Volume;
#X obj 1676 182 tgl 15 0 empty empty empty 17 7 0 10 -262144 -1 -1
0 1;
#X obj 1696 182 bng 15 250 50 0 empty empty empty 17 7 0 10 -262144
-1 -1;
#X obj 1628 181 tgl 15 0 empty empty empty 17 7 0 10 -262144 -1 -1
0 1;
#X obj 1628 202 bng 15 250 50 0 empty empty empty 17 7 0 10 -262144
-1 -1;
#X obj 1578 84 tgl 15 0 empty empty empty 17 7 0 10 -162280 -1 -1 0
1;
#X obj 1597 84 bng 15 250 50 0 empty empty empty 17 7 0 10 -262144
-1 -1;
#X obj 1529 182 tgl 15 0 empty empty empty 17 7 0 10 -262144 -1 -1
0 1;
#X obj 1549 182 bng 15 250 50 0 empty empty empty 17 7 0 10 -262144
-1 -1;
#X obj 1480 84 tgl 15 0 empty empty empty 17 7 0 10 -162280 -1 -1 0
1;
#X obj 1500 84 bng 15 250 50 0 empty empty empty 17 7 0 10 -262144
-1 -1;
#X obj 1431 181 tgl 15 0 empty empty empty 17 7 0 10 -262144 -1 -1
0 1;
#X obj 1451 181 bng 15 250 50 0 empty empty empty 17 7 0 10 -262144
-1 -1;
#X obj 1381 83 tgl 15 0 empty empty empty 17 7 0 10 -162280 -1 -1 0
1;
#X obj 1401 83 bng 15 250 50 0 empty empty empty 17 7 0 10 -262144
-1 -1;
#X obj 1332 181 tgl 15 0 empty empty empty 17 7 0 10 -262144 -1 -1
0 1;
#X obj 1352 181 bng 15 250 50 0 empty empty empty 17 7 0 10 -262144
-1 -1;
#X obj 1283 180 tgl 15 0 empty empty empty 17 7 0 10 -262144 -1 -1
0 1;
#X obj 1303 180 bng 15 250 50 0 empty empty empty 17 7 0 10 -262144
-1 -1;
#X text 1626 223 35 B3;
#X text 1576 110 34 Bb3;
#X text 1529 205 33 A3;
#X text 1479 112 32 Ab3;
#X text 1430 204 31 G3;
#X text 1331 207 29 F3;
#X text 1281 206 28 E3;
#X text 1380 109 30 F#;
#X obj 1234 83 tgl 15 0 empty empty empty 17 7 0 10 -162280 -1 -1 0
1;
#X obj 1254 83 bng 15 250 50 0 empty empty empty 17 7 0 10 -262144
-1 -1;
#X obj 1185 180 tgl 15 0 empty empty empty 17 7 0 10 -262144 -1 -1
0 1;
#X obj 1205 180 bng 15 250 50 0 empty empty empty 17 7 0 10 -262144
-1 -1;
#X obj 1136 83 tgl 15 0 empty empty empty 17 7 0 10 -162280 -1 -1 0
1;
#X obj 1156 83 bng 15 250 50 0 empty empty empty 17 7 0 10 -262144
-1 -1;
#X obj 1107 182 bng 15 250 50 0 empty empty empty 17 7 0 10 -262144
-1 -1;
#X text 1234 107 27 Eb3;
#X text 1185 203 26 D3;
#X text 1136 106 25 C#3;
#X text 1088 205 24 C3;
#X text 1675 209 36 C4;
#X obj 1087 182 tgl 15 0 empty empty empty 17 7 0 10 -262144 -1 -1
0 1;
#X obj 1087 30 select 24 25 26 27 28 29 30 31 32 33 34 35 36, f 107
;
#X obj 373 111 select 12 13 14 15 16 17 18 19 20 21 22 23, f 99;
#X obj 617 342 s selectSpeaker;
#X msg 396 296 1;
#X msg 491 296 2;
#X msg 589 299 3;
#X msg 638 298 4;
#X msg 737 301 5;
#X msg 835 301 6;
#X obj 280 294 s mainVolume;
#X obj 969 238 s soundChannel;
#X msg 442 208 1;
#X msg 540 205 2;
#X msg 687 208 3;
#X msg 885 211 5;
#X msg 785 208 4;
#X obj 1254 137 s resetMeters;
#X obj 1401 133 s normaliseLoudness;
#X obj 1480 156 s toggleBypassEffects;
#X obj 312 350 pgmin;
#X obj 412 418 -;
#X obj 408 395 pipe 50;
#X obj 311 440 s programNumber;
#X obj 412 438 s programUpOrDown;
#X msg 933 300 7;
#X obj 1136 138 s isReferenceTrack;
#X connect 1 0 0 0;
#X connect 2 0 1 0;
#X connect 3 0 106 0;
#X connect 4 0 3 0;
#X connect 5 0 4 0;
#X connect 5 1 3 1;
#X connect 8 0 129 0;
#X connect 10 0 119 0;
#X connect 12 0 113 0;
#X connect 14 0 120 0;
#X connect 16 0 112 0;
#X connect 18 0 118 0;
#X connect 20 0 111 0;
#X connect 22 0 110 0;
#X connect 32 0 117 0;
#X connect 34 0 109 0;
#X connect 36 0 116 0;
#X connect 37 0 108 0;
#X connect 44 0 43 0;
#X connect 45 0 54 0;
#X connect 46 0 57 0;
#X connect 47 0 63 0;
#X connect 48 0 60 0;
#X connect 49 0 43 0;
#X connect 49 0 44 0;
#X connect 51 0 52 0;
#X connect 52 0 53 0;
#X connect 54 0 51 0;
#X connect 55 0 114 0;
#X connect 57 0 55 0;
#X connect 58 0 64 0;
#X connect 60 0 58 0;
#X connect 61 0 62 0;
#X connect 62 0 65 0;
#X connect 63 0 61 0;
#X connect 67 0 66 0;
#X connect 68 0 69 0;
#X connect 74 0 123 0;
#X connect 79 0 122 0;
#X connect 93 0 121 0;
#X connect 97 0 130 0;
#X connect 105 0 104 0;
#X connect 105 0 98 0;
#X connect 105 1 97 0;
#X connect 105 2 95 0;
#X connect 105 2 94 0;
#X connect 105 3 93 0;
#X connect 105 4 82 0;
#X connect 105 4 83 0;
#X connect 105 5 80 0;
#X connect 105 5 81 0;
#X connect 105 6 79 0;
#X connect 105 7 76 0;
#X connect 105 7 77 0;
#X connect 105 8 74 0;
#X connect 105 8 75 0;
#X connect 105 9 72 0;
#X connect 105 9 73 0;
#X connect 105 10 71 0;
#X connect 105 11 68 0;
#X connect 105 12 66 0;
#X connect 106 0 42 0;
#X connect 106 0 37 0;
#X connect 106 1 35 0;
#X connect 106 1 36 0;
#X connect 106 2 34 0;
#X connect 106 2 33 0;
#X connect 106 3 31 0;
#X connect 106 3 32 0;
#X connect 106 4 21 0;
#X connect 106 4 22 0;
#X connect 106 5 19 0;
#X connect 106 5 20 0;
#X connect 106 6 17 0;
#X connect 106 6 18 0;
#X connect 106 7 15 0;
#X connect 106 7 16 0;
#X connect 106 8 13 0;
#X connect 106 8 14 0;
#X connect 106 9 11 0;
#X connect 106 9 12 0;
#X connect 106 10 9 0;
#X connect 106 10 10 0;
#X connect 106 11 7 0;
#X connect 106 11 8 0;
#X connect 106 12 105 0;
#X connect 108 0 107 0;
#X connect 109 0 107 0;
#X connect 110 0 107 0;
#X connect 111 0 107 0;
#X connect 112 0 107 0;
#X connect 113 0 107 0;
#X connect 116 0 115 0;
#X connect 117 0 115 0;
#X connect 118 0 115 0;
#X connect 119 0 115 0;
#X connect 120 0 115 0;
#X connect 124 0 125 0;
#X connect 124 0 126 0;
#X connect 124 0 127 0;
#X connect 125 0 128 0;
#X connect 126 0 125 1;
#X connect 129 0 107 0;
#X coords 0 0 1 1 85 60 0;
#X restore 106 -90 pd midicontrollers;
#N canvas 476 557 664 447 osc-kontrolleur 0;
#X obj 87 92 pipelist;
#X obj 87 66 unpackOSC;
#X obj 87 40 udpreceive 44444;
#X obj 88 117 routeOSC /touches;
#X obj 86 185 list split 1;
#X obj 86 217 expr if ($f1 <= 260 \, 0 \, if ($f1 > 260 && $f1 <= 520
\, 1 \, if ($f1 > 520 && $f1 <= 780 \, 2 \, if ($f1 > 780 && $f1 <=
1040 \, 3 \, 4))));
#X obj 88 162 list split 1;
#X obj 88 140 list split 1;
#X obj 493 201 / 702;
#X obj 86 266 s midicntrls;
#X obj 493 268 s midivol;
#X obj 493 181 - 10;
#X obj 493 221 * 1050;
#X obj 493 244 expr if ($f1 < 0 \, 0 \, if ($f1 > 1000 \, 1000 \, $f1))
;
#X connect 0 0 3 0;
#X connect 1 0 0 0;
#X connect 1 1 0 1;
#X connect 2 0 1 0;
#X connect 3 0 7 0;
#X connect 4 0 5 0;
#X connect 5 0 9 0;
#X connect 6 0 11 0;
#X connect 6 1 4 0;
#X connect 7 1 6 0;
#X connect 8 0 12 0;
#X connect 11 0 8 0;
#X connect 12 0 13 0;
#X connect 13 0 10 0;
#X restore 106 -128 pd osc-kontrolleur;
#N canvas 224 216 1267 471 osc-control 0;
#X obj 79 73 pipelist;
#X obj 79 45 unpackOSC;
#X obj 21 153 print;
#X obj 199 61 tgl 15 0 empty empty empty 17 7 0 10 -262144 -1 -1 0
1;
#X obj 242 41 bng 15 250 50 0 empty empty empty 17 7 0 10 -262144 -1
-1;
#X obj 78 14 udpreceive 10001;
#X obj 83 151 s selectSpeaker;
#X obj 83 95 routeOSC /oscControl;
#X obj 193 152 s soundChannel;
#X obj 83 125 routeOSC /selectSpeaker /soundChannel /soundLevel;
#X obj 293 152 s soundLevel;
#X obj 463 345 routeOSC /gridButton9 /gridButton10 /gridButton11 /gridButton12
, f 64;
#X obj 558 374 s pauseLufsMeters;
#X obj 463 455 routeOSC /gridButton13 /gridButton14 /gridButton15 /gridButton16
, f 66;
#X obj 561 502 s resetMeters;
#X obj 561 479 bng 15 250 50 0 empty empty empty 17 7 0 10 -262144
-1 -1;
#X text 468 435 line 4;
#X obj 585 588 bng 15 250 50 0 empty empty empty 17 7 0 10 -262144
-1 -1;
#X text 466 543 line 5;
#X obj 461 562 routeOSC /gridButton17 /gridButton18 /gridButton19 /gridButton20
, f 67;
#X obj 585 611 s normaliseLoudness;
#X text 463 322 line 3;
#X text 463 212 line 2;
#X obj 463 235 routeOSC /gridButton5 /gridButton6 /gridButton7 /gridButton8
, f 64;
#X obj 748 285 s toggleBinaural;
#X obj 748 261 bng 15 250 50 0 empty empty empty 17 7 0 10 -262144
-1 -1;
#X obj 748 372 bng 15 250 50 0 empty empty empty 17 7 0 10 -262144
-1 -1;
#X obj 770 372 tgl 15 0 empty empty empty 17 7 0 10 -262144 -1 -1 0
1;
#X msg 822 395 5;
#X msg 791 395 4;
#X obj 791 418 s soundChannel;
#X obj 791 373 select 1 0;
#X obj 463 392 s soundLevel;
#X msg 463 369 3;
#X obj 556 700 bng 15 250 50 0 empty empty empty 17 7 0 10 -262144
-1 -1;
#X text 462 655 line 5;
#X obj 770 791 s normaliseLoudness;
#X obj 457 674 routeOSC /gridButton21 /gridButton22 /gridButton23 /gridButton24
, f 67;
#X obj 577 701 tgl 15 0 empty empty empty 17 7 0 10 -162280 -1 -1 0
1;
#X obj 655 761 s referenceTrack;
#X obj 867 729 s panAutomator1;
#X obj 79 93;
#X obj 1113 726 s volumeAutomator1;
#X obj 867 704 routeOSC /slider2Dx /slider2Dy /slider1, f 62;
#X connect 0 0 7 0;
#X connect 0 0 41 0;
#X connect 1 0 0 0;
#X connect 1 1 0 1;
#X connect 5 0 1 0;
#X connect 7 0 9 0;
#X connect 9 0 6 0;
#X connect 9 1 8 0;
#X connect 9 2 10 0;
#X connect 9 3 23 0;
#X connect 11 0 33 0;
#X connect 11 1 12 0;
#X connect 11 3 26 0;
#X connect 11 4 13 0;
#X connect 13 1 15 0;
#X connect 13 4 19 0;
#X connect 15 0 14 0;
#X connect 17 0 20 0;
#X connect 19 1 17 0;
#X connect 19 4 37 0;
#X connect 23 3 25 0;
#X connect 23 4 11 0;
#X connect 25 0 24 0;
#X connect 26 0 27 0;
#X connect 27 0 31 0;
#X connect 28 0 30 0;
#X connect 29 0 30 0;
#X connect 31 0 29 0;
#X connect 31 1 28 0;
#X connect 33 0 32 0;
#X connect 34 0 38 0;
#X connect 37 1 34 0;
#X connect 37 4 43 0;
#X connect 38 0 39 0;
#X connect 43 0 40 0;
#X connect 43 2 42 0;
#X restore 106 -109 pd osc-control;
#N canvas 560 446 450 300 pd_interface 0;
#X obj 84 73 vsl 20 200 0 1000 0 0 empty empty empty 0 -9 0 10 -261234
-1 -1 0 1;
#X obj 305 39 vradio 30 1 0 5 empty empty empty 0 -8 0 10 -204786 -1
-1 0;
#X msg 151 16 0;
#N canvas 232 106 858 495 midsidebox 0;
#X msg 137 172 0;
#X obj 104 199 s mutemain;
#X msg 104 173 1;
#X msg 180 173 0;
#X obj 180 199 s mutem;
#X msg 214 173 1;
#X msg 293 173 1;
#X obj 259 199 s mutes;
#X msg 259 173 0;
#X obj 99 57 inlet;
#N canvas 643 378 576 300 side 0;
#X obj 167 136 +~, f 2;
#X obj 126 105 *~ -0.5;
#X obj 194 104 *~ 0.5;
#X obj 19 164 loadbang;
#X msg -12 211 1;
#X obj 170 177 *~;
#X msg 21 195 -1;
#X obj 97 266 s~ l-o2;
#X obj 177 262 s~ r-o2;
#X obj 201 195 s~ fftside;
#X obj 181 74 r~ r;
#X obj 152 74 r~ l;
#X obj 323 99 r mutes;
#X obj 95 238 *~;
#X obj 175 238 *~ 1;
#X connect 0 0 5 0;
#X connect 1 0 0 0;
#X connect 2 0 0 0;
#X connect 3 0 6 0;
#X connect 4 0 13 1;
#X connect 5 0 13 0;
#X connect 5 0 14 0;
#X connect 6 0 13 1;
#X connect 10 0 2 0;
#X connect 11 0 1 0;
#X connect 12 0 5 1;
#X connect 13 0 7 0;
#X connect 14 0 8 0;
#X restore 259 227 pd side;
#N canvas 843 80 450 300 mono 0;
#X obj 156 82 +~;
#X obj 162 130 *~;
#X obj 159 108 *~ 0.5;
#X obj 150 164 s~ l-o3;
#X obj 201 164 s~ r-o3;
#X obj 265 57 r~ r;
#X obj 150 44 r~ l;
#X obj 214 107 r mutem;
#X connect 0 0 2 0;
#X connect 1 0 3 0;
#X connect 1 0 4 0;
#X connect 2 0 1 0;
#X connect 5 0 0 1;
#X connect 6 0 0 0;
#X connect 7 0 1 1;
#X restore 179 227 pd mono;
#X obj 125 406 dac~ 1 2;
#X obj 188 326 r~ r-o;
#X obj 126 326 r~ l-o;
#X obj 126 349 r~ l-o2;
#X obj 188 349 r~ r-o2;
#X obj 126 372 r~ l-o3;
#X obj 188 372 r~ r-o3;
#N canvas 167 36 1440 851 stereo 0;
#X obj 190 100 *~;
#X obj 131 97 *~;
#X obj 130 126 s~ l-o;
#X obj 190 125 s~ r-o;
#X obj 267 61 r mutemain;
#X obj 195 55 r~ r;
#X obj 132 56 r~ l;
#X connect 0 0 3 0;
#X connect 1 0 2 0;
#X connect 4 0 0 1;
#X connect 4 0 1 1;
#X connect 5 0 0 0;
#X connect 6 0 1 0;
#X restore 104 226 pd stereo;
#X msg 381 173 1;
#X msg 347 173 0;
#X obj 99 89 select 0 1 2 3 4, f 81;
#X obj 126 304 r~ l-l;
#X obj 188 304 r~ r-r;
#X msg 467 173 1;
#X msg 433 173 0;
#N canvas 0 23 1440 851 leftright 0;
#X obj 218 100 *~;
#X obj 121 101 *~;
#X obj 195 55 r~ r;
#X obj 57 59 r~ l;
#X obj 250 56 r muter;
#X obj 126 151 s~ l-l;
#X obj 189 152 s~ r-r;
#X obj 123 57 r mutel;
#X connect 0 0 6 0;
#X connect 1 0 5 0;
#X connect 2 0 0 0;
#X connect 3 0 1 0;
#X connect 4 0 0 1;
#X connect 7 0 1 1;
#X restore 377 229 pd leftright;
#X obj 433 199 s muter;
#X obj 347 199 s mutel;
#X connect 0 0 1 0;
#X connect 2 0 1 0;
#X connect 3 0 4 0;
#X connect 5 0 4 0;
#X connect 6 0 7 0;
#X connect 8 0 7 0;
#X connect 9 0 22 0;
#X connect 13 0 12 1;
#X connect 14 0 12 0;
#X connect 15 0 12 0;
#X connect 16 0 12 1;
#X connect 17 0 12 0;
#X connect 18 0 12 1;
#X connect 20 0 29 0;
#X connect 21 0 29 0;
#X connect 22 0 2 0;
#X connect 22 0 3 0;
#X connect 22 0 8 0;
#X connect 22 0 21 0;
#X connect 22 0 26 0;
#X connect 22 1 0 0;
#X connect 22 1 5 0;
#X connect 22 1 8 0;
#X connect 22 1 21 0;
#X connect 22 1 26 0;
#X connect 22 2 0 0;
#X connect 22 2 6 0;
#X connect 22 2 3 0;
#X connect 22 2 21 0;
#X connect 22 2 26 0;
#X connect 22 3 20 0;
#X connect 22 3 8 0;
#X connect 22 3 3 0;
#X connect 22 3 0 0;
#X connect 22 3 26 0;
#X connect 22 4 25 0;
#X connect 22 4 21 0;
#X connect 22 4 8 0;
#X connect 22 4 0 0;
#X connect 22 4 3 0;
#X connect 23 0 12 0;
#X connect 24 0 12 1;
#X connect 25 0 28 0;
#X connect 26 0 28 0;
#X restore 305 203 pd midsidebox;
#X floatatom 85 310 5 0 0 0 - - -;
#X text 249 46 stereo;
#X text 261 76 mono;
#X text 260 107 side;
#X text 259 136 left;
#X text 254 167 right;
#X obj 305 16 r midicntrls;
#N canvas 659 385 450 300 volume-slider 0;
#X obj 156 52 inlet;
#X obj 159 224 outlet;
#X obj 189 114 r midivol;
#X obj 162 169 * 1000;
#X connect 0 0 3 0;
#X connect 2 0 3 0;
#X connect 3 0 1 0;
#X restore 83 39 pd volume-slider;
#N canvas 433 563 450 300 inputvolumes 0;
#X obj 244 36 inlet;
#X obj 158 217 s~ r;
#X obj 204 218 s~ l;
#N canvas 158 223 450 300 monovolume 0;
#X obj 81 198 *~;
#X msg 162 135 \$1 20;
#X obj 125 180 line~;
#X obj 252 43 vsl 15 50 0.01 1 0 0 empty empty vol -20 5 0 10 -262144
-1 -1 0 1;
#X obj 102 61 tgl 15 0 empty empty mute -4 -6 0 10 -262144 -1 -1 0
1;
#X obj 28 113 inlet~;
#X obj 81 270 outlet~;
#X obj 81 240 *~;
#X msg 190 192 \$1 20;
#X obj 122 235 line~;
#X obj 125 104 * -1;
#X obj 125 128 + 1;
#X obj 151 49 loadbang;
#X msg 151 74 0;
#X obj 63 33 inlet;
#X connect 0 0 7 0;
#X connect 1 0 2 0;
#X connect 2 0 0 1;
#X connect 3 0 1 0;
#X connect 4 0 10 0;
#X connect 5 0 0 0;
#X connect 7 0 6 0;
#X connect 8 0 9 0;
#X connect 9 0 7 1;
#X connect 10 0 11 0;
#X connect 11 0 8 0;
#X connect 12 0 13 0;
#X connect 13 0 10 0;
#X connect 14 0 4 0;
#X restore 354 46 pd monovolume;
#X obj 28 77 bng 15 250 50 0 empty empty empty 17 7 0 10 -262144 -1
-1;
#X obj 28 97 metro 300;
#X obj 30 122 snapshot~;
#X obj 155 34 adc~ 1 2 3 4;
#X obj 102 120 r mute;
#X obj 188 140 *~;
#X obj 152 141 *~;
#X obj 163 189 *~;
#X obj 205 192 *~;
#X obj 250 173 / 1000;
#X obj 256 243 outlet;
#X obj 351 131 vu 15 120 empty empty -1 -8 0 10 -66577 -1 1 0;
#X floatatom 30 164 5 0 0 0 - - -;
#X connect 0 0 13 0;
#X connect 4 0 5 0;
#X connect 5 0 6 0;
#X connect 6 0 16 0;
#X connect 7 0 10 0;
#X connect 7 1 9 0;
#X connect 8 0 9 1;
#X connect 8 0 10 1;
#X connect 9 0 12 0;
#X connect 10 0 11 0;
#X connect 11 0 1 0;
#X connect 12 0 2 0;
#X connect 13 0 11 1;
#X connect 13 0 12 1;
#X connect 13 0 14 0;
#X restore 85 289 pd inputvolumes;
#X msg 118 16 0.5;
#X msg 83 16 1;
#X obj 35 77 vu 15 120 empty empty -1 -8 0 10 -66577 -1 1 0;
#X connect 0 0 12 0;
#X connect 1 0 3 0;
#X connect 2 0 11 0;
#X connect 10 0 1 0;
#X connect 11 0 0 0;
#X connect 12 0 4 0;
#X connect 13 0 11 0;
#X connect 14 0 11 0;
#X restore 1 -128 pd pd_interface;
#N canvas 795 170 1040 544 totalmix-sender 0;
#N canvas 445 443 747 380 totalMixUdpSender 0;
#X obj 346 239 udpsend;
#X obj 166 74 loadbang;
#X msg 77 215 \; pd dsp \$1;
#X obj 82 181 tgl 15 0 empty empty empty 17 7 0 10 -262144 -1 -1 1
1;
#X obj 198 103 metro 1000;
#X obj 229 129 bng 15 250 50 0 empty empty empty 17 7 0 10 -262144
-1 -1;
#X obj 178 253 != 1;
#X obj 397 142 packOSC;
#X msg 198 219 disconnect;
#X floatatom 174 277 5 0 0 0 - - -;
#X obj 171 102 tgl 15 0 empty empty empty 17 7 0 10 -262144 -1 -1 0
1;
#X msg 264 40 sendtyped /test i 1;
#X msg 228 188 connect 127.0.0.1 7001;
#X obj 568 117 print;
#X msg 334 70 1;
#X obj 388 6 r toRME;
#X obj 602 232 pipelist;
#X obj 602 210 unpackOSC;
#X obj 602 184 udpreceive 9001;
#X connect 0 0 6 0;
#X connect 1 0 4 0;
#X connect 1 0 3 0;
#X connect 4 0 5 0;
#X connect 4 0 12 0;
#X connect 6 0 9 0;
#X connect 6 0 10 0;
#X connect 7 0 0 0;
#X connect 8 0 0 0;
#X connect 10 0 4 0;
#X connect 11 0 7 0;
#X connect 12 0 0 0;
#X connect 15 0 7 0;
#X connect 17 0 16 0;
#X connect 17 1 16 1;
#X connect 18 0 17 0;
#X restore 37 342 pd totalMixUdpSender;
#X floatatom 229 129 5 0 0 0 - - -;
#X obj 294 115 r midiPhones1Volume;
#X msg 330 196 sendtyped /1/mastervolume f \$1;
#X msg 295 143 sendtyped /1/volume4 f \$1;
#X obj 459 96 r midiSpeakers3Volume;
#X msg 327 337 sendtyped /1/track- f \$1;
#X msg 370 239 sendtyped /1/track+ f 3;
#X msg 458 131 sendtyped /1/volume7 f \$1;
#X obj 601 305 s toRME;
#X msg 574 212 sendtyped /1/mute/1/1 f \$1;
#X msg 611 249 sendtyped /1/mute/1/3 f \$1;
#X msg 592 232 sendtyped /1/mute/1/2 f \$1;
#X msg 636 269 sendtyped /1/mute/1/4 f \$1;
#X msg 768 210 sendtyped /1/mute/1/5 f \$1;
#X msg 786 230 sendtyped /1/mute/1/6 f \$1;
#X msg 805 247 sendtyped /1/mute/1/7 f \$1;
#X msg 830 263 sendtyped /1/mute/1/8 f \$1;
#X obj 813 301 s toRME;
#X obj 680 -9 r selectSpeaker;
#X obj 29 61 r mainVolume;
#X obj 155 32 r soundLevel;
#X msg 29 178 sendtyped /1/volume3 f \$1;
#X obj 29 199 s toRME;
#X obj 295 163 s toRME;
#X obj 458 164 s toRME;
#X obj 330 216 s toRME;
#X obj 370 259 s toRME;
#X msg 149 89 0;
#X msg 207 88 0.35;
#X obj 155 62 select 0 1 2 3;
#X msg 249 89 0.632;
#X msg 176 89 0.51;
#X obj 892 368 r toggleBypassEffects;
#X obj 892 456 s toRME;
#X msg 892 406 sendtyped /3/snapshots/8/1 f 1;
#X msg 931 427 sendtyped /3/snapshots/7/1 f 1;
#X obj 892 386 route 0;
#X obj 983 180 s toggleSwitchExtSoundOff;
#X obj 678 18 select 0 1 2 3 4 5 6 7, f 122;
#X msg 675 39 1 1 1 1 1 1 1;
#X msg 766 39 0 1 1 1 1 1 1;
#X msg 858 38 1 0 1 1 1 1 1;
#X msg 951 39 1 1 0 1 1 1 1;
#X msg 1041 39 1 1 1 0 1 1 1;
#X msg 1131 39 1 1 1 1 0 1 1;
#X msg 1224 41 1 1 1 1 1 0 1;
#X obj 717 149 unpack f f f f f f f;
#X floatatom 900 149 5 0 0 0 - - -;
#X msg 1316 42 1 1 1 1 1 1 0;
#X floatatom 459 116 5 0 0 0 - - -;
#X connect 2 0 1 0;
#X connect 2 0 4 0;
#X connect 3 0 26 0;
#X connect 4 0 24 0;
#X connect 5 0 8 0;
#X connect 5 0 50 0;
#X connect 7 0 27 0;
#X connect 8 0 25 0;
#X connect 10 0 9 0;
#X connect 11 0 9 0;
#X connect 12 0 9 0;
#X connect 13 0 9 0;
#X connect 14 0 18 0;
#X connect 15 0 18 0;
#X connect 16 0 18 0;
#X connect 17 0 18 0;
#X connect 19 0 39 0;
#X connect 20 0 1 0;
#X connect 20 0 22 0;
#X connect 21 0 30 0;
#X connect 22 0 23 0;
#X connect 28 0 22 0;
#X connect 29 0 22 0;
#X connect 30 0 28 0;
#X connect 30 1 32 0;
#X connect 30 2 29 0;
#X connect 30 3 31 0;
#X connect 31 0 22 0;
#X connect 32 0 22 0;
#X connect 33 0 37 0;
#X connect 35 0 34 0;
#X connect 36 0 34 0;
#X connect 37 0 35 0;
#X connect 37 1 36 0;
#X connect 39 0 40 0;
#X connect 39 1 41 0;
#X connect 39 2 42 0;
#X connect 39 3 43 0;
#X connect 39 4 44 0;
#X connect 39 5 45 0;
#X connect 39 6 46 0;
#X connect 39 7 49 0;
#X connect 40 0 47 0;
#X connect 41 0 47 0;
#X connect 42 0 47 0;
#X connect 43 0 47 0;
#X connect 44 0 47 0;
#X connect 45 0 47 0;
#X connect 46 0 47 0;
#X connect 47 0 11 0;
#X connect 47 1 13 0;
#X connect 47 2 14 0;
#X connect 47 3 15 0;
#X connect 47 4 16 0;
#X connect 47 5 17 0;
#X connect 47 6 38 0;
#X connect 47 6 48 0;
#X connect 49 0 47 0;
#X restore 232 -127 pd totalmix-sender;
#N canvas 128 171 1560 676 REAPER-sender 0;
#X obj 336 354 s toREAPER;
#N canvas 445 443 747 380 REAPERUdpSender 0;
#X obj 346 239 udpsend;
#X obj 166 74 loadbang;
#X msg 77 215 \; pd dsp \$1;
#X obj 82 181 tgl 15 0 empty empty empty 17 7 0 10 -262144 -1 -1 1
1;
#X obj 198 103 metro 1000;
#X obj 229 129 bng 15 250 50 0 empty empty empty 17 7 0 10 -262144
-1 -1;
#X obj 178 253 != 1;
#X obj 397 142 packOSC;
#X msg 198 219 disconnect;
#X floatatom 174 277 5 0 0 0 - - -;
#X obj 171 102 tgl 15 0 empty empty empty 17 7 0 10 -262144 -1 -1 0
1;
#X msg 264 40 sendtyped /test i 1;
#X obj 568 117 print;
#X msg 334 70 1;
#X msg 228 188 connect 127.0.0.1 8000;
#X obj 388 6 r toREAPER;
#X connect 0 0 6 0;
#X connect 1 0 4 0;
#X connect 1 0 3 0;
#X connect 4 0 5 0;
#X connect 4 0 14 0;
#X connect 6 0 9 0;
#X connect 6 0 10 0;
#X connect 7 0 0 0;
#X connect 8 0 0 0;
#X connect 10 0 4 0;
#X connect 11 0 7 0;
#X connect 14 0 0 0;
#X connect 15 0 7 0;
#X restore -29 237 pd REAPERUdpSender;
#X floatatom 478 210 5 0 0 0 - - -;
#X obj 378 426 r midiPhones1Volume;
#X obj 369 188 r midiLeft;
#X obj 443 189 r midiRight;
#X obj 202 190 r midiMid;
#X obj 290 189 r midiSide;
#X msg 202 211 sendtyped /midiMid f \$1;
#X msg 290 246 sendtyped /midiSide f \$1;
#X obj 443 231 / 2;
#X msg 443 275 sendtyped /midiSidePan f \$1;
#X msg 369 301 sendtyped /midiMidPan f \$1;
#X obj 443 211 + 1;
#X obj 369 274 / 2;
#X obj 369 208 + 0;
#X obj 837 285 unpack f f f f;
#X obj 848 407 s toREAPER;
#X msg 880 242 1 0 0.5 0.5;
#X msg 974 241 0 0 0 0;
#X msg 1042 241 0 0 1 1;
#X obj 1147 338 s toREAPER;
#X obj 282 427 r mainVolume;
#X obj 697 212 select 1 2 3 4 5, f 65;
#X obj 697 189 r soundChannel;
#X msg 901 338 sendtyped /midPan f \$1;
#X msg 984 362 sendtyped /sidePan f \$1;
#X msg 803 362 sendtyped /sideChannel f \$1;
#X msg 697 242 0 0 0.5 0.5;
#X msg 786 242 0 1 0.5 0.5;
#X msg 727 339 sendtyped /midChannel f \$1;
#X msg 1433 430 sendtyped resetMeters f 1;
#X obj 1040 1261 s toREAPERext;
#X msg 1431 409 sendtyped t/pause f 1;
#X msg 1108 1195 sendtyped t/play f 1;
#X obj 1031 1112 r resetMeters;
#X msg 1071 1153 sendtyped t/stop f 1;
#X msg 1090 1175 sendtyped f/time f 0;
#X obj 1031 1137 bng 15 250 50 0 empty empty empty 17 7 0 10 -262144
-1 -1;
#X msg 1191 1253 sendtyped s/frames/str s 0;
#X obj 953 477 vsl 15 128 0 1 0 0 empty empty empty 0 -9 0 10 -262144
-1 -1 0 1;
#X floatatom 957 659 5 0 0 0 - - -;
#X obj 783 726 r resetMeters;
#X obj 486 872 s toREAPERext;
#X msg 486 1177 sendtyped /adjustLoudness f 0.1;
#X msg 544 1219 sendtyped /adjustLoudness f 0.51;
#X obj 544 1198 delay 50;
#X obj 486 1268 s toREAPERext;
#X obj 487 1127 r adjustLoudness;
#X obj 784 906 s toREAPERext;
#X msg 828 842 sendtyped /resetMeters f 0.1;
#X obj 529 805 delay 50;
#X msg 487 785 sendtyped /resetAdjust f 0.1;
#X msg 529 823 sendtyped /resetAdjust f 0.51;
#X msg 891 1196 sendtyped t/play f 1;
#X msg 854 1154 sendtyped t/stop f 1;
#X msg 873 1176 sendtyped f/time f 0;
#X obj 814 1138 bng 15 250 50 0 empty empty empty 17 7 0 10 -262144
-1 -1;
#X obj 823 1262 s toREAPER;
#X obj 814 1112 r resetMeters;
#X obj 487 907 r pauseLufsMeters;
#X msg 484 1017 sendtyped /pauseLufsMeters f \$1, f 39;
#X obj 487 938 bng 15 250 50 0 empty empty empty 17 7 0 10 -262144
-1 -1;
#X obj 523 937 tgl 15 0 empty empty empty 17 7 0 10 -262144 -1 -1 0
1;
#X obj 488 729 r normaliseLoudness;
#X obj 484 1091 s toREAPERext;
#X msg 573 1243 sendtyped /adjustLoudness f 0.5;
#X obj 486 754 bng 15 250 50 0 empty empty empty 17 7 0 10 -262144
-1 -1;
#X obj 510 754 tgl 15 0 empty empty empty 17 7 0 10 -262144 -1 -1 0
1;
#X obj 542 754 select 0 1;
#X msg 570 843 sendtyped /adjustLoudness f 0.5;
#X obj 1663 168 r toggleBinaural;
#X obj 1663 196 tgl 15 0 empty empty empty 17 7 0 10 -262144 -1 -1
0 1;
#X msg 1663 235 sendtyped /toggleBinaral f \$1;
#X obj 1663 257 s toREAPER;
#X obj 802 973 bng 15 250 50 0 empty empty empty 17 7 0 10 -262144
-1 -1;
#X obj 826 973 tgl 15 0 empty empty empty 17 7 0 10 -262144 -1 -1 0
1;
#X obj 802 951 r resetMeters;
#X obj 804 1064 s toREAPERext;
#X obj 828 1021 delay 160;
#X floatatom 906 703 5 0 0 0 - - -;
#X obj 906 683 * 2000;
#X obj 906 663 - 0.5;
#X msg 830 1042 sendtyped /resetVisMeter f 0.51;
#X msg 804 998 sendtyped /resetVisMeter f 1;
#X msg 572 1063 sendtyped /pauseLufsMeters f 0.1;
#X obj 567 1041 delay 2000;
#X obj 577 939 delay 2000;
#X obj 485 968 / 2;
#X obj 485 986 + 0.1;
#X msg 561 961 \$1;
#X obj 783 750 bng 15 250 50 0 empty empty empty 17 7 0 10 -262144
-1 -1;
#X msg 815 886 sendtyped /resetMeters f 1;
#X obj 814 822 delay 100;
#X obj 578 1268 s toREAPER;
#X obj 579 872 s toREAPER;
#X obj 583 1090 s toREAPER;
#X obj 898 907 s toREAPER;
#X msg 784 799 sendtyped /adjustLoudness f 0.5;
#X obj 804 866 delay 180;
#X obj 1195 282 tgl 15 0 empty empty empty 17 7 0 10 -262144 -1 -1
1 1;
#X obj 1195 233 delay 20;
#X msg 1222 281 0.5;
#X obj 1460 366 s toREAPER;
#X obj 1472 180 r programNumber;
#X floatatom 1489 227 5 0 0 0 - - -;
#X msg 1462 339 sendtyped /changeReferenceToNumber f \$1;
#X obj 1461 248 expr 0.03125 * $i1 + 0.03125;
#X obj 1469 273 expr 0.03125 * $i1 - 0.03125;
#X obj 1473 204 moses 18;
#X obj 1410 306 f;
#X obj 1391 278 spigot;
#X obj 1383 159 delay 1000;
#X msg 1403 190 1;
#X obj 1393 237 delay 1000;
#X msg 1197 304 sendtyped /toggleMCompare f \$1;
#X msg 1147 253 sendtyped /midiReferenceAB f 1;
#N canvas 110 110 1560 676 LittleREAPERUdpSender 0;
#X obj 346 239 udpsend;
#X obj 166 74 loadbang;
#X msg 77 215 \; pd dsp \$1;
#X obj 82 181 tgl 15 0 empty empty empty 17 7 0 10 -262144 -1 -1 1
1;
#X obj 198 103 metro 1000;
#X obj 229 129 bng 15 250 50 0 empty empty empty 17 7 0 10 -262144
-1 -1;
#X obj 178 253 != 1;
#X obj 397 142 packOSC;
#X msg 198 219 disconnect;
#X floatatom 174 277 5 0 0 0 - - -;
#X obj 171 102 tgl 15 0 empty empty empty 17 7 0 10 -262144 -1 -1 0
1;
#X obj 392 34 r toREAPERext;
#X msg 228 188 connect 192.168.1.85 8000;
#X connect 0 0 6 0;
#X connect 1 0 4 0;
#X connect 1 0 3 0;
#X connect 4 0 5 0;
#X connect 4 0 12 0;
#X connect 6 0 9 0;
#X connect 6 0 10 0;
#X connect 7 0 0 0;
#X connect 8 0 0 0;
#X connect 10 0 4 0;
#X connect 11 0 7 0;
#X connect 12 0 0 0;
#X restore -28 258 pd LittleREAPERUdpSender;
#X obj 1386 607 s toREAPERextStudio;
#X msg 1283 531 sendtyped /toggleMuteLocalSignal f \$1;
#X msg 1383 496 sendtyped /toggleEnableReceiveSignal f \$1;
#N canvas 88 88 1560 676 StudioREAPERUdpSender 0;
#X obj 346 239 udpsend;
#X obj 166 74 loadbang;
#X msg 77 215 \; pd dsp \$1;
#X obj 82 181 tgl 15 0 empty empty empty 17 7 0 10 -262144 -1 -1 1
1;
#X obj 198 103 metro 1000;
#X obj 229 129 bng 15 250 50 0 empty empty empty 17 7 0 10 -262144
-1 -1;
#X obj 178 253 != 1;
#X obj 397 142 packOSC;
#X msg 198 219 disconnect;
#X floatatom 174 277 5 0 0 0 - - -;
#X obj 171 102 tgl 15 0 empty empty empty 17 7 0 10 -262144 -1 -1 0
1;
#X msg 228 188 connect 192.168.1.89 12003;
#X obj 392 34 r toREAPERextStudio;
#X connect 0 0 6 0;
#X connect 1 0 4 0;
#X connect 1 0 3 0;
#X connect 4 0 5 0;
#X connect 4 0 11 0;
#X connect 6 0 9 0;
#X connect 6 0 10 0;
#X connect 7 0 0 0;
#X connect 8 0 0 0;
#X connect 10 0 4 0;
#X connect 11 0 0 0;
#X connect 12 0 7 0;
#X restore -27 281 pd StudioREAPERUdpSender;
#X obj 1871 54 r selectSpeaker;
#X obj 1871 76 select 7;
#X msg 1868 101 1;
#X msg 1915 101 0;
#X msg 1871 122 sendtyped /toggleSendtoStudioComputer f \$1;
#X obj 1871 143 s toREAPERextStudio;
#X obj 1978 96 s isExtStudio;
#X msg 1195 569 sendtyped /toggleMCompare f \$1;
#X obj 1147 207 r isReferenceTrack;
#X obj 1046 418 r toggleSwitchExtSoundOff;
#X floatatom 1046 445 5 0 0 0 - - -;
#X obj 1010 586 s toREAPER;
#X msg 997 511 sendtyped /toggleSendToExtStudio f \$1;
#X obj 1990 228 r mainVolume;
#X obj 1990 269 s toREAPERextStudio;
#X msg 1990 248 sendtyped /extStudioVolume f \$1;
#X msg 1282 505 0;
#X msg 1382 469 0;
#X connect 4 0 15 0;
#X connect 5 0 2 0;
#X connect 5 0 13 0;
#X connect 6 0 8 0;
#X connect 7 0 9 0;
#X connect 8 0 0 0;
#X connect 9 0 0 0;
#X connect 10 0 11 0;
#X connect 10 0 12 0;
#X connect 11 0 0 0;
#X connect 12 0 0 0;
#X connect 13 0 10 0;
#X connect 14 0 11 0;
#X connect 14 0 12 0;
#X connect 15 0 14 0;
#X connect 16 0 30 0;
#X connect 16 1 27 0;
#X connect 16 2 25 0;
#X connect 16 3 26 0;
#X connect 18 0 16 0;
#X connect 19 0 16 0;
#X connect 20 0 16 0;
#X connect 23 0 28 0;
#X connect 23 1 29 0;
#X connect 23 2 18 0;
#X connect 23 3 19 0;
#X connect 23 4 20 0;
#X connect 24 0 23 0;
#X connect 25 0 17 0;
#X connect 26 0 17 0;
#X connect 27 0 17 0;
#X connect 28 0 16 0;
#X connect 29 0 16 0;
#X connect 30 0 17 0;
#X connect 34 0 32 0;
#X connect 36 0 32 0;
#X connect 37 0 32 0;
#X connect 38 0 36 0;
#X connect 38 0 37 0;
#X connect 38 0 34 0;
#X connect 40 0 41 0;
#X connect 40 0 82 0;
#X connect 42 0 91 0;
#X connect 44 0 47 0;
#X connect 44 0 94 0;
#X connect 45 0 47 0;
#X connect 45 0 94 0;
#X connect 46 0 45 0;
#X connect 48 0 44 0;
#X connect 48 0 46 0;
#X connect 50 0 49 0;
#X connect 50 0 97 0;
#X connect 51 0 53 0;
#X connect 52 0 43 0;
#X connect 52 0 95 0;
#X connect 53 0 43 0;
#X connect 53 0 95 0;
#X connect 54 0 58 0;
#X connect 55 0 58 0;
#X connect 56 0 58 0;
#X connect 57 0 55 0;
#X connect 57 0 56 0;
#X connect 57 0 54 0;
#X connect 60 0 62 0;
#X connect 60 0 87 0;
#X connect 61 0 65 0;
#X connect 61 0 96 0;
#X connect 62 0 63 0;
#X connect 63 0 90 0;
#X connect 64 0 67 0;
#X connect 66 0 47 0;
#X connect 66 0 94 0;
#X connect 67 0 68 0;
#X connect 68 0 69 0;
#X connect 69 0 52 0;
#X connect 69 0 51 0;
#X connect 69 1 70 0;
#X connect 70 0 43 0;
#X connect 70 0 95 0;
#X connect 71 0 72 0;
#X connect 72 0 73 0;
#X connect 73 0 74 0;
#X connect 75 0 76 0;
#X connect 75 0 84 0;
#X connect 75 0 79 0;
#X connect 79 0 83 0;
#X connect 81 0 80 0;
#X connect 82 0 81 0;
#X connect 83 0 78 0;
#X connect 84 0 78 0;
#X connect 85 0 65 0;
#X connect 85 0 96 0;
#X connect 86 0 85 0;
#X connect 88 0 89 0;
#X connect 89 0 61 0;
#X connect 90 0 88 0;
#X connect 91 0 98 0;
#X connect 91 0 93 0;
#X connect 91 0 99 0;
#X connect 92 0 49 0;
#X connect 92 0 97 0;
#X connect 93 0 50 0;
#X connect 98 0 49 0;
#X connect 98 0 97 0;
#X connect 99 0 92 0;
#X connect 100 0 115 0;
#X connect 100 0 129 0;
#X connect 100 0 139 0;
#X connect 101 0 100 0;
#X connect 104 0 109 0;
#X connect 106 0 103 0;
#X connect 108 0 106 0;
#X connect 109 0 105 0;
#X connect 109 0 107 0;
#X connect 109 0 108 0;
#X connect 112 0 113 0;
#X connect 113 0 111 1;
#X connect 114 0 111 0;
#X connect 114 0 112 0;
#X connect 115 0 21 0;
#X connect 116 0 21 0;
#X connect 119 0 118 0;
#X connect 120 0 118 0;
#X connect 122 0 123 0;
#X connect 123 0 124 0;
#X connect 123 1 125 0;
#X connect 124 0 126 0;
#X connect 124 0 128 0;
#X connect 125 0 126 0;
#X connect 125 0 128 0;
#X connect 126 0 127 0;
#X connect 129 0 118 0;
#X connect 130 0 116 0;
#X connect 130 0 101 0;
#X connect 131 0 134 0;
#X connect 131 0 132 0;
#X connect 131 0 138 0;
#X connect 131 0 139 0;
#X connect 134 0 133 0;
#X connect 135 0 137 0;
#X connect 137 0 136 0;
#X connect 138 0 119 0;
#X connect 139 0 120 0;
#X coords 0 676 1 675 85 60 0;
#X restore 232 -108 pd REAPER-sender;
#N canvas 375 162 872 645 studioOneController 0;
#X obj 96 262 noteout;
#X obj 338 113 loadbang;
#X obj 96 184 metro;
#X obj 96 236 makenote;
#X floatatom 189 166 0 0 0 0 - - -;
#X obj 96 210 f;
#X floatatom 145 166 0 0 0 0 - - -;
#X floatatom 233 166 0 0 0 0 - - -;
#X floatatom 276 166 0 0 0 0 - - -;
#X msg 338 148 500;
#X msg 370 148 60;
#X msg 399 148 64;
#X msg 427 148 250;
#X text 144 145 rate;
#X text 187 145 pitch;
#X text 232 145 vel;
#X text 268 146 length;
#X floatatom 229 245 0 0 0 0 - - -;
#X obj 373 208 r volumeAutomator1;
#X floatatom 373 246 5 0 0 0 - - -;
#X obj 373 322 i;
#X floatatom 373 342 5 0 0 0 - - -;
#X floatatom 442 344 5 0 0 0 - - -;
#X obj 442 324 bendin 1;
#X obj 269 582 bendout;
#X obj 407 399 vsl 15 128 0 127 0 0 empty empty empty 0 -9 0 10 -262144
-1 -1 0 1;
#X obj 387 293 * 8192;
#X obj 373 265 expr (($f1 - 0.5) * 16984);
#X obj 229 302 ctlout 7;
#N canvas 0 50 450 300 floatToMidi 0;
#X obj 137 79 inlet;
#X obj 137 99 * 127;
#X obj 137 119 i;
#X obj 137 139 outlet;
#X connect 0 0 1 0;
#X connect 1 0 2 0;
#X connect 2 0 3 0;
#X restore 229 271 pd floatToMidi;
#X text 331 11 https://www.midi.org/specifications-old/item/table-3-control-change-messages-data-bytes-2
;
#X connect 1 0 9 0;
#X connect 1 0 10 0;
#X connect 1 0 11 0;
#X connect 1 0 12 0;
#X connect 2 0 5 0;
#X connect 3 0 0 0;
#X connect 3 1 0 1;
#X connect 4 0 5 1;
#X connect 5 0 3 0;
#X connect 6 0 2 1;
#X connect 7 0 3 1;
#X connect 8 0 3 2;
#X connect 9 0 6 0;
#X connect 10 0 4 0;
#X connect 11 0 7 0;
#X connect 12 0 8 0;
#X connect 17 0 29 0;
#X connect 18 0 17 0;
#X connect 19 0 27 0;
#X connect 20 0 21 0;
#X connect 21 0 24 0;
#X connect 23 0 22 0;
#X connect 25 0 24 0;
#X connect 27 0 20 0;
#X connect 29 0 28 0;
#X restore 231 -89 pd studioOneController;
