#N canvas 531 183 1517 1075 10;
#X obj 40 9 loadbang;
#X msg 12 80 disconnect;
#X obj 371 27 adc~ 1 2;
#X obj 371 58 dac~ 1 2;
#X obj 10 9 bng 15 250 50 0 empty empty empty 17 7 0 10 -262144 -1
-1;
#X obj 12 60 bng 15 250 50 0 empty empty empty 17 7 0 10 -262144 -1
-1;
#X obj 221 10 bng 15 250 50 0 empty empty empty 17 7 0 10 -262144 -1
-1;
#X msg 220 31 1;
#X obj 260 10 bng 15 250 50 0 empty empty empty 17 7 0 10 -262144 -1
-1;
#X msg 259 31 0;
#X msg 9 32 connect localhost 15000;
#X obj 219 53 oscformat -f f hello;
#X obj 151 106 list trim;
#X obj 151 127 netsend -u -b;
#X obj 151 85 list prepend send;
#X connect 0 0 10 0;
#X connect 1 0 13 0;
#X connect 2 0 3 0;
#X connect 2 1 3 1;
#X connect 4 0 10 0;
#X connect 5 0 1 0;
#X connect 6 0 7 0;
#X connect 7 0 11 0;
#X connect 8 0 9 0;
#X connect 9 0 11 0;
#X connect 10 0 13 0;
#X connect 11 0 14 0;
#X connect 12 0 13 0;
#X connect 14 0 12 0;
#X coords 0 -1 1 1 350 150 1 0 0;
