#N canvas 82 422 943 492 10;
#X obj 57 -95 vsl 20 200 0 1000 0 0 empty empty empty 0 -9 0 10 -261234
-1 -1 15920 1;
#X obj 278 -129 vradio 30 1 0 5 empty empty empty 0 -8 0 10 -204786
-1 -1 0;
#X msg 124 -152 0;
#N canvas 88 100 1091 644 midicontrollers 1;
#X obj 79 82 / 127;
#X obj 81 100 * 1000;
#X obj 1 187 s midicntrls;
#X msg 31 147 0;
#X obj 1 118 loadbang;
#X obj 428 69 spigot;
#X floatatom 694 -18 5 0 0 0 - - -;
#X obj 439 35 pipe 1;
#X obj 579 -70 notein;
#X floatatom 653 -59 5 0 0 0 - - -;
#X floatatom 447 -38 5 0 0 0 - - -;
#X obj 1013 231 tgl 15 0 empty empty empty 17 7 0 10 -262144 -1 -1
0 1;
#X obj 1033 232 bng 15 250 50 0 empty empty empty 17 7 0 10 -262144
-1 -1;
#X obj 963 231 tgl 15 0 empty empty empty 17 7 0 10 -262144 -1 -1 0
1;
#X obj 983 232 bng 15 250 50 0 empty empty empty 17 7 0 10 -262144
-1 -1;
#X obj 913 231 tgl 15 0 empty empty empty 17 7 0 10 -262144 -1 -1 0
1;
#X obj 933 232 bng 15 250 50 0 empty empty empty 17 7 0 10 -262144
-1 -1;
#X obj 863 231 tgl 15 0 empty empty empty 17 7 0 10 -262144 -1 -1 0
1;
#X obj 883 232 bng 15 250 50 0 empty empty empty 17 7 0 10 -262144
-1 -1;
#X obj 807 232 tgl 15 0 empty empty empty 17 7 0 10 -262144 -1 -1 0
1;
#X obj 827 233 bng 15 250 50 0 empty empty empty 17 7 0 10 -262144
-1 -1;
#X obj 752 232 tgl 15 0 empty empty empty 17 7 0 10 -262144 -1 -1 0
1;
#X obj 772 233 bng 15 250 50 0 empty empty empty 17 7 0 10 -262144
-1 -1;
#X obj 698 230 tgl 15 0 empty empty empty 17 7 0 10 -262144 -1 -1 0
1;
#X obj 718 231 bng 15 250 50 0 empty empty empty 17 7 0 10 -262144
-1 -1;
#X obj 648 230 tgl 15 0 empty empty empty 17 7 0 10 -262144 -1 -1 0
1;
#X obj 668 231 bng 15 250 50 0 empty empty empty 17 7 0 10 -262144
-1 -1;
#X obj 598 230 tgl 15 0 empty empty empty 17 7 0 10 -262144 -1 -1 0
1;
#X obj 618 231 bng 15 250 50 0 empty empty empty 17 7 0 10 -262144
-1 -1;
#X text 962 256 35 B3;
#X text 912 256 34 Bb3;
#X text 862 256 33 A3;
#X text 806 257 32 Ab3;
#X text 751 257 31 G3;
#X text 647 255 29 F3;
#X text 597 255 28 E3;
#X text 697 255 30 F#;
#X obj 541 229 tgl 15 0 empty empty empty 17 7 0 10 -262144 -1 -1 0
1;
#X obj 561 230 bng 15 250 50 0 empty empty empty 17 7 0 10 -262144
-1 -1;
#X obj 488 230 tgl 15 0 empty empty empty 17 7 0 10 -262144 -1 -1 0
1;
#X obj 508 231 bng 15 250 50 0 empty empty empty 17 7 0 10 -262144
-1 -1;
#X obj 431 229 tgl 15 0 empty empty empty 17 7 0 10 -262144 -1 -1 0
1;
#X obj 451 230 bng 15 250 50 0 empty empty empty 17 7 0 10 -262144
-1 -1;
#X obj 391 230 bng 15 250 50 0 empty empty empty 17 7 0 10 -262144
-1 -1;
#X text 540 254 27 Eb3;
#X text 481 251 26 D3;
#X text 431 253 25 C#3;
#X text 368 252 24 C3;
#X text 1012 256 36 C4;
#X obj 371 229 tgl 15 0 empty empty empty 17 7 0 10 -262144 -1 -1 0
1;
#X obj 366 112 select 12 13 14 15 16 17 18 19 20 21 22 23 24, f 99
;
#X msg 198 246 /cc79 \$1;
#X msg 429 420 /nt_ch1 \$1;
#X msg 115 246 /cc74 \$1;
#X obj 427 394 notein;
#X msg 100 381 /_pitchbend;
#X obj 362 387 pgmin;
#X floatatom 363 414 5 0 0 0 - - -;
#X floatatom 111 354 5 0 0 0 - - -;
#X obj 215 314 ctlin 1 1;
#X obj 280 220 ctlin 7 1;
#X obj 114 216 ctlin 74 1;
#X obj 197 219 ctlin 79 1;
#X obj 108 327 bendin;
#X msg 106 306 8192;
#X floatatom 212 359 5 0 0 0 - - -;
#X obj 212 377 f;
#X floatatom 287 435 5 0 0 0 - - -;
#X obj 212 340 / 127;
#X obj 280 299 s midiVolume;
#X floatatom 280 262 5 0 0 0 - - -;
#X obj 280 280 f;
#X obj 280 243 / 127;
#X connect 0 0 1 0;
#X connect 3 0 2 0;
#X connect 4 0 3 0;
#X connect 5 0 50 0;
#X connect 7 0 5 0;
#X connect 8 0 7 0;
#X connect 8 0 10 0;
#X connect 8 1 6 0;
#X connect 8 1 5 1;
#X connect 8 2 9 0;
#X connect 12 0 11 0;
#X connect 14 0 13 0;
#X connect 16 0 15 0;
#X connect 18 0 17 0;
#X connect 20 0 19 0;
#X connect 22 0 21 0;
#X connect 24 0 23 0;
#X connect 26 0 25 0;
#X connect 28 0 27 0;
#X connect 38 0 37 0;
#X connect 40 0 39 0;
#X connect 42 0 41 0;
#X connect 43 0 49 0;
#X connect 50 0 49 0;
#X connect 50 1 41 0;
#X connect 50 2 39 0;
#X connect 50 3 37 0;
#X connect 50 4 27 0;
#X connect 50 5 25 0;
#X connect 50 6 23 0;
#X connect 50 7 21 0;
#X connect 50 8 19 0;
#X connect 50 9 17 0;
#X connect 50 10 15 0;
#X connect 50 11 13 0;
#X connect 50 12 11 0;
#X connect 56 0 57 0;
#X connect 58 0 55 0;
#X connect 59 0 68 0;
#X connect 60 0 72 0;
#X connect 61 0 53 0;
#X connect 62 0 51 0;
#X connect 63 0 55 0;
#X connect 63 0 58 0;
#X connect 65 0 66 0;
#X connect 66 0 67 0;
#X connect 68 0 65 0;
#X connect 70 0 71 0;
#X connect 71 0 69 0;
#X connect 72 0 70 0;
#X restore 278 -180 pd midicontrollers;
#N canvas 562 36 858 495 midsidebox 0;
#X msg 137 172 0;
#X obj 104 199 s mutemain;
#X msg 104 173 1;
#X msg 180 173 0;
#X obj 180 199 s mutem;
#X msg 214 173 1;
#X msg 293 173 1;
#X obj 259 199 s mutes;
#X msg 259 173 0;
#X obj 99 57 inlet;
#N canvas 643 378 576 300 side 0;
#X obj 167 136 +~, f 2;
#X obj 126 105 *~ -0.5;
#X obj 194 104 *~ 0.5;
#X obj 19 164 loadbang;
#X msg -12 211 1;
#X obj 170 177 *~;
#X msg 21 195 -1;
#X obj 97 266 s~ l-o2;
#X obj 177 262 s~ r-o2;
#X obj 201 195 s~ fftside;
#X obj 181 74 r~ r;
#X obj 152 74 r~ l;
#X obj 323 99 r mutes;
#X obj 95 238 *~;
#X obj 175 238 *~ 1;
#X connect 0 0 5 0;
#X connect 1 0 0 0;
#X connect 2 0 0 0;
#X connect 3 0 6 0;
#X connect 4 0 13 1;
#X connect 5 0 13 0;
#X connect 5 0 14 0;
#X connect 6 0 13 1;
#X connect 10 0 2 0;
#X connect 11 0 1 0;
#X connect 12 0 5 1;
#X connect 13 0 7 0;
#X connect 14 0 8 0;
#X restore 259 227 pd side;
#N canvas 843 80 450 300 mono 0;
#X obj 156 82 +~;
#X obj 162 130 *~;
#X obj 159 108 *~ 0.5;
#X obj 150 164 s~ l-o3;
#X obj 201 164 s~ r-o3;
#X obj 265 57 r~ r;
#X obj 150 44 r~ l;
#X obj 214 107 r mutem;
#X connect 0 0 2 0;
#X connect 1 0 3 0;
#X connect 1 0 4 0;
#X connect 2 0 1 0;
#X connect 5 0 0 1;
#X connect 6 0 0 0;
#X connect 7 0 1 1;
#X restore 179 227 pd mono;
#X obj 125 406 dac~ 1 2;
#X obj 188 326 r~ r-o;
#X obj 126 326 r~ l-o;
#X obj 126 349 r~ l-o2;
#X obj 188 349 r~ r-o2;
#X obj 126 372 r~ l-o3;
#X obj 188 372 r~ r-o3;
#N canvas 167 36 1440 851 stereo 0;
#X obj 190 100 *~;
#X obj 131 97 *~;
#X obj 130 126 s~ l-o;
#X obj 190 125 s~ r-o;
#X obj 267 61 r mutemain;
#X obj 195 55 r~ r;
#X obj 132 56 r~ l;
#X connect 0 0 3 0;
#X connect 1 0 2 0;
#X connect 4 0 0 1;
#X connect 4 0 1 1;
#X connect 5 0 0 0;
#X connect 6 0 1 0;
#X restore 104 226 pd stereo;
#X msg 381 173 1;
#X msg 347 173 0;
#X obj 99 89 select 0 1 2 3 4, f 81;
#X obj 126 304 r~ l-l;
#X obj 188 304 r~ r-r;
#X msg 467 173 1;
#X msg 433 173 0;
#N canvas 0 23 1440 851 leftright 0;
#X obj 218 100 *~;
#X obj 121 101 *~;
#X obj 195 55 r~ r;
#X obj 57 59 r~ l;
#X obj 250 56 r muter;
#X obj 126 151 s~ l-l;
#X obj 189 152 s~ r-r;
#X obj 123 57 r mutel;
#X connect 0 0 6 0;
#X connect 1 0 5 0;
#X connect 2 0 0 0;
#X connect 3 0 1 0;
#X connect 4 0 0 1;
#X connect 7 0 1 1;
#X restore 377 229 pd leftright;
#X obj 433 199 s muter;
#X obj 347 199 s mutel;
#X connect 0 0 1 0;
#X connect 2 0 1 0;
#X connect 3 0 4 0;
#X connect 5 0 4 0;
#X connect 6 0 7 0;
#X connect 8 0 7 0;
#X connect 9 0 22 0;
#X connect 13 0 12 1;
#X connect 14 0 12 0;
#X connect 15 0 12 0;
#X connect 16 0 12 1;
#X connect 17 0 12 0;
#X connect 18 0 12 1;
#X connect 20 0 29 0;
#X connect 21 0 29 0;
#X connect 22 0 2 0;
#X connect 22 0 3 0;
#X connect 22 0 8 0;
#X connect 22 0 21 0;
#X connect 22 0 26 0;
#X connect 22 1 0 0;
#X connect 22 1 5 0;
#X connect 22 1 8 0;
#X connect 22 1 21 0;
#X connect 22 1 26 0;
#X connect 22 2 0 0;
#X connect 22 2 6 0;
#X connect 22 2 3 0;
#X connect 22 2 21 0;
#X connect 22 2 26 0;
#X connect 22 3 20 0;
#X connect 22 3 8 0;
#X connect 22 3 3 0;
#X connect 22 3 0 0;
#X connect 22 3 26 0;
#X connect 22 4 25 0;
#X connect 22 4 21 0;
#X connect 22 4 8 0;
#X connect 22 4 0 0;
#X connect 22 4 3 0;
#X connect 23 0 12 0;
#X connect 24 0 12 1;
#X connect 25 0 28 0;
#X connect 26 0 28 0;
#X restore 278 35 pd midsidebox;
#X floatatom 58 142 5 0 0 0 - - -;
#X text 222 -122 stereo;
#X text 234 -92 mono;
#X text 233 -61 side;
#X text 232 -32 left;
#X text 227 -1 right;
#X obj 278 -152 r midicntrls;
#N canvas 482 408 664 447 osc-kontrolleur 0;
#X obj 87 92 pipelist;
#X obj 87 66 unpackOSC;
#X obj 87 40 udpreceive 44444;
#X obj 88 117 routeOSC /touches;
#X obj 86 185 list split 1;
#X obj 86 217 expr if ($f1 <= 260 \, 0 \, if ($f1 > 260 && $f1 <= 520
\, 1 \, if ($f1 > 520 && $f1 <= 780 \, 2 \, if ($f1 > 780 && $f1 <=
1040 \, 3 \, 4))));
#X obj 88 162 list split 1;
#X obj 88 140 list split 1;
#X obj 493 201 / 702;
#X obj 86 266 s midicntrls;
#X obj 493 268 s midivol;
#X obj 493 181 - 10;
#X obj 493 221 * 1050;
#X obj 493 244 expr if ($f1 < 0 \, 0 \, if ($f1 > 1000 \, 1000 \, $f1))
;
#X connect 0 0 3 0;
#X connect 1 0 0 0;
#X connect 1 1 0 1;
#X connect 2 0 1 0;
#X connect 3 0 7 0;
#X connect 4 0 5 0;
#X connect 5 0 9 0;
#X connect 6 0 11 0;
#X connect 6 1 4 0;
#X connect 7 1 6 0;
#X connect 8 0 12 0;
#X connect 11 0 8 0;
#X connect 12 0 13 0;
#X connect 13 0 10 0;
#X restore 402 -179 pd osc-kontrolleur;
#N canvas 174 98 731 360 osc-control 0;
#X obj 87 92 pipelist;
#X obj 87 66 unpackOSC;
#X obj 88 117 routeOSC /oscControl;
#X obj 89 214 s midivol;
#X obj 191 213 s midicntrls;
#X obj 87 40 udpreceive 10001;
#X obj 97 150 routeOSC /volume /channels /mute, f 48;
#X obj 285 209 s mute;
#X msg 197 190 0;
#X obj 2 174 loadbang;
#X msg 95 189 0.8;
#X msg 288 188 1;
#X connect 0 0 2 0;
#X connect 1 0 0 0;
#X connect 1 1 0 1;
#X connect 2 0 6 0;
#X connect 5 0 1 0;
#X connect 6 0 3 0;
#X connect 6 1 4 0;
#X connect 6 2 7 0;
#X connect 8 0 4 0;
#X connect 9 0 8 0;
#X connect 9 0 11 0;
#X connect 9 0 10 0;
#X connect 10 0 3 0;
#X connect 11 0 7 0;
#X restore 523 -179 pd osc-control;
#N canvas 659 385 450 300 volume-slider 0;
#X obj 156 52 inlet;
#X obj 159 224 outlet;
#X obj 189 114 r midivol;
#X obj 162 169 * 1000;
#X connect 0 0 3 0;
#X connect 2 0 3 0;
#X connect 3 0 1 0;
#X restore 56 -129 pd volume-slider;
#N canvas 433 563 450 300 inputvolumes 0;
#X obj 244 36 inlet;
#X obj 158 217 s~ r;
#X obj 204 218 s~ l;
#N canvas 158 223 450 300 monovolume 0;
#X obj 81 198 *~;
#X msg 162 135 \$1 20;
#X obj 125 180 line~;
#X obj 252 43 vsl 15 50 0.01 1 0 0 empty empty vol -20 5 0 10 -262144
-1 -1 0 1;
#X obj 102 61 tgl 15 0 empty empty mute -4 -6 0 10 -262144 -1 -1 0
1;
#X obj 28 113 inlet~;
#X obj 81 270 outlet~;
#X obj 81 240 *~;
#X msg 190 192 \$1 20;
#X obj 122 235 line~;
#X obj 125 104 * -1;
#X obj 125 128 + 1;
#X obj 151 49 loadbang;
#X msg 151 74 0;
#X obj 63 33 inlet;
#X connect 0 0 7 0;
#X connect 1 0 2 0;
#X connect 2 0 0 1;
#X connect 3 0 1 0;
#X connect 4 0 10 0;
#X connect 5 0 0 0;
#X connect 7 0 6 0;
#X connect 8 0 9 0;
#X connect 9 0 7 1;
#X connect 10 0 11 0;
#X connect 11 0 8 0;
#X connect 12 0 13 0;
#X connect 13 0 10 0;
#X connect 14 0 4 0;
#X restore 354 46 pd monovolume;
#X obj 28 77 bng 15 250 50 0 empty empty empty 17 7 0 10 -262144 -1
-1;
#X obj 28 97 metro 300;
#X obj 30 122 snapshot~;
#X obj 155 34 adc~ 1 2 3 4;
#X obj 102 120 r mute;
#X obj 188 140 *~;
#X obj 152 141 *~;
#X obj 163 189 *~;
#X obj 205 192 *~;
#X obj 250 173 / 1000;
#X obj 256 243 outlet;
#X obj 351 131 vu 15 120 empty empty -1 -8 0 10 -66577 -1 1 0;
#X floatatom 30 164 5 0 0 0 - - -;
#X connect 0 0 13 0;
#X connect 4 0 5 0;
#X connect 5 0 6 0;
#X connect 6 0 16 0;
#X connect 7 0 10 0;
#X connect 7 1 9 0;
#X connect 8 0 9 1;
#X connect 8 0 10 1;
#X connect 9 0 12 0;
#X connect 10 0 11 0;
#X connect 11 0 1 0;
#X connect 12 0 2 0;
#X connect 13 0 11 1;
#X connect 13 0 12 1;
#X connect 13 0 14 0;
#X restore 58 121 pd inputvolumes;
#X msg 91 -152 0.5;
#X msg 56 -152 1;
#X obj 8 -91 vu 15 120 empty empty -1 -8 0 10 -66577 -1 1 0;
#N canvas 20 187 450 300 totalmix 0;
#N canvas 392 549 747 380 totalMixUdpSender 1;
#X obj 346 239 udpsend;
#X obj 166 74 loadbang;
#X msg 77 215 \; pd dsp \$1;
#X obj 82 181 tgl 15 0 empty empty empty 17 7 0 10 -262144 -1 -1 1
1;
#X obj 198 103 metro 1000;
#X obj 229 129 bng 15 250 50 0 empty empty empty 17 7 0 10 -262144
-1 -1;
#X obj 178 253 != 1;
#X obj 397 142 packOSC;
#X msg 198 219 disconnect;
#X floatatom 174 277 5 0 0 0 - - -;
#X obj 171 102 tgl 15 0 empty empty empty 17 7 0 10 -262144 -1 -1 0
1;
#X msg 257 24 sendtyped /test i 1;
#X msg 334 70 /test 1;
#X msg 228 188 connect 127.0.0.1 7001;
#X obj 400 -2 inlet;
#X floatatom 457 47 5 0 0 0 - - -;
#X obj 400 18 print;
#X connect 0 0 6 0;
#X connect 1 0 4 0;
#X connect 1 0 3 0;
#X connect 4 0 5 0;
#X connect 4 0 13 0;
#X connect 6 0 9 0;
#X connect 6 0 10 0;
#X connect 7 0 0 0;
#X connect 8 0 0 0;
#X connect 10 0 4 0;
#X connect 11 0 7 0;
#X connect 12 0 7 0;
#X connect 13 0 0 0;
#X connect 14 0 7 0;
#X connect 14 0 15 0;
#X connect 14 0 16 0;
#X restore 151 211 pd totalMixUdpSender;
#X obj 78 109 r midiVolume;
#X msg 45 207;
#X floatatom 88 133 5 0 0 0 - - -;
#X msg 80 158 sendtyped /1/mastervolume f \$1;
#X connect 1 0 3 0;
#X connect 1 0 4 0;
#X connect 4 0 0 0;
#X restore 657 -177 pd totalmix;
#N canvas 796 63 450 300 reaper 1;
#X obj 60 33 r midiVolme;
#X msg 60 53;
#X connect 0 0 1 0;
#X restore 804 -179 pd reaper;
#X connect 0 0 15 0;
#X connect 1 0 4 0;
#X connect 2 0 14 0;
#X connect 11 0 1 0;
#X connect 14 0 0 0;
#X connect 15 0 5 0;
#X connect 16 0 14 0;
#X connect 17 0 14 0;
