#N canvas 0 0 505 87 10;
#N canvas 143 378 1084 427 midicontrollers 0;
#X obj 1 187 s midicntrls;
#X msg 31 147 0;
#X obj 1 118 loadbang;
#X obj 428 69 spigot;
#X floatatom 593 -3 5 0 0 0 - - -;
#X obj 439 35 pipe 1;
#X obj 579 -70 notein;
#X floatatom 613 11 5 0 0 0 - - -;
#X floatatom 579 -22 5 0 0 0 - - -;
#X obj 914 250 tgl 15 0 empty empty empty 17 7 0 10 -262144 -1 -1 0
1;
#X obj 934 250 bng 15 250 50 0 empty empty empty 17 7 0 10 -262144
-1 -1;
#X obj 864 165 tgl 15 0 empty empty empty 17 7 0 10 -162280 -1 -1 0
1;
#X obj 883 165 bng 15 250 50 0 empty empty empty 17 7 0 10 -262144
-1 -1;
#X obj 816 251 tgl 15 0 empty empty empty 17 7 0 10 -262144 -1 -1 1
1;
#X obj 836 251 bng 15 250 50 0 empty empty empty 17 7 0 10 -262144
-1 -1;
#X obj 766 165 tgl 15 0 empty empty empty 17 7 0 10 -162280 -1 -1 0
1;
#X obj 786 165 bng 15 250 50 0 empty empty empty 17 7 0 10 -262144
-1 -1;
#X obj 718 250 tgl 15 0 empty empty empty 17 7 0 10 -262144 -1 -1 1
1;
#X obj 738 250 bng 15 250 50 0 empty empty empty 17 7 0 10 -262144
-1 -1;
#X obj 667 164 tgl 15 0 empty empty empty 17 7 0 10 -162280 -1 -1 0
1;
#X obj 687 164 bng 15 250 50 0 empty empty empty 17 7 0 10 -262144
-1 -1;
#X obj 619 250 tgl 15 0 empty empty empty 17 7 0 10 -262144 -1 -1 0
1;
#X obj 639 250 bng 15 250 50 0 empty empty empty 17 7 0 10 -262144
-1 -1;
#X obj 570 249 tgl 15 0 empty empty empty 17 7 0 10 -262144 -1 -1 0
1;
#X obj 590 249 bng 15 250 50 0 empty empty empty 17 7 0 10 -262144
-1 -1;
#X text 913 277 35 B3;
#X text 862 191 34 Bb3;
#X text 815 278 33 A3;
#X text 765 193 32 Ab3;
#X text 717 278 31 G3;
#X text 618 276 29 F3;
#X text 568 275 28 E3;
#X text 666 190 30 F#;
#X obj 520 164 tgl 15 0 empty empty empty 17 7 0 10 -162280 -1 -1 0
1;
#X obj 540 164 bng 15 250 50 0 empty empty empty 17 7 0 10 -262144
-1 -1;
#X obj 472 250 tgl 15 0 empty empty empty 17 7 0 10 -262144 -1 -1 1
1;
#X obj 492 250 bng 15 250 50 0 empty empty empty 17 7 0 10 -262144
-1 -1;
#X obj 422 164 tgl 15 0 empty empty empty 17 7 0 10 -162280 -1 -1 0
1;
#X obj 442 164 bng 15 250 50 0 empty empty empty 17 7 0 10 -262144
-1 -1;
#X obj 394 251 bng 15 250 50 0 empty empty empty 17 7 0 10 -262144
-1 -1;
#X text 519 189 27 Eb3;
#X text 472 273 26 D3;
#X text 422 187 25 C#3;
#X text 374 274 24 C3;
#X obj 374 251 tgl 15 0 empty empty empty 17 7 0 10 -262144 -1 -1 0
1;
#X msg 103 403 /_pitchbend;
#X floatatom 114 376 5 0 0 0 - - -;
#X obj 194 363 ctlin 1 1;
#X obj 281 217 ctlin 7 1;
#X obj 108 217 ctlin 74 1;
#X obj 188 219 ctlin 79 1;
#X obj 103 349 bendin;
#X msg 49 332 8192;
#X floatatom 194 402 5 0 0 0 - - -;
#X obj 194 420 f;
#X floatatom 194 439 5 0 0 0 - - -;
#X obj 194 383 / 127;
#X floatatom 281 259 5 0 0 0 - - -;
#X obj 281 277 f;
#X obj 281 240 / 127;
#X floatatom 189 259 5 0 0 0 - - -;
#X obj 189 277 f;
#X obj 189 240 / 127;
#X floatatom 108 259 5 0 0 0 - - -;
#X obj 108 277 f;
#X obj 108 240 / 127;
#X obj 189 316 s midiPhones1Volume;
#X obj 51 297 s midiSpeakers3Volume;
#X obj 1672 366 tgl 15 0 empty empty empty 17 7 0 10 -262144 -1 -1
0 1;
#X obj 1692 366 bng 15 250 50 0 empty empty empty 17 7 0 10 -262144
-1 -1;
#X obj 1624 359 tgl 15 0 empty empty empty 17 7 0 10 -262144 -1 -1
0 1;
#X obj 1644 359 bng 15 250 50 0 empty empty empty 17 7 0 10 -262144
-1 -1;
#X obj 1574 262 tgl 15 0 empty empty empty 17 7 0 10 -162280 -1 -1
0 1;
#X obj 1593 262 bng 15 250 50 0 empty empty empty 17 7 0 10 -262144
-1 -1;
#X obj 1526 360 tgl 15 0 empty empty empty 17 7 0 10 -262144 -1 -1
0 1;
#X obj 1546 360 bng 15 250 50 0 empty empty empty 17 7 0 10 -262144
-1 -1;
#X obj 1476 262 tgl 15 0 empty empty empty 17 7 0 10 -162280 -1 -1
0 1;
#X obj 1496 262 bng 15 250 50 0 empty empty empty 17 7 0 10 -262144
-1 -1;
#X obj 1428 359 tgl 15 0 empty empty empty 17 7 0 10 -262144 -1 -1
0 1;
#X obj 1448 359 bng 15 250 50 0 empty empty empty 17 7 0 10 -262144
-1 -1;
#X obj 1377 261 tgl 15 0 empty empty empty 17 7 0 10 -162280 -1 -1
0 1;
#X obj 1397 261 bng 15 250 50 0 empty empty empty 17 7 0 10 -262144
-1 -1;
#X obj 1329 359 tgl 15 0 empty empty empty 17 7 0 10 -262144 -1 -1
0 1;
#X obj 1349 359 bng 15 250 50 0 empty empty empty 17 7 0 10 -262144
-1 -1;
#X obj 1280 358 tgl 15 0 empty empty empty 17 7 0 10 -262144 -1 -1
0 1;
#X obj 1300 358 bng 15 250 50 0 empty empty empty 17 7 0 10 -262144
-1 -1;
#X text 1623 386 35 B3;
#X text 1572 288 34 Bb3;
#X text 1525 387 33 A3;
#X text 1475 290 32 Ab3;
#X text 1427 387 31 G3;
#X text 1328 385 29 F3;
#X text 1278 384 28 E3;
#X text 1376 287 30 F#;
#X obj 1230 261 tgl 15 0 empty empty empty 17 7 0 10 -162280 -1 -1
0 1;
#X obj 1250 261 bng 15 250 50 0 empty empty empty 17 7 0 10 -262144
-1 -1;
#X obj 1182 359 tgl 15 0 empty empty empty 17 7 0 10 -262144 -1 -1
0 1;
#X obj 1202 359 bng 15 250 50 0 empty empty empty 17 7 0 10 -262144
-1 -1;
#X obj 1132 261 tgl 15 0 empty empty empty 17 7 0 10 -162280 -1 -1
0 1;
#X obj 1152 261 bng 15 250 50 0 empty empty empty 17 7 0 10 -262144
-1 -1;
#X obj 1104 360 bng 15 250 50 0 empty empty empty 17 7 0 10 -262144
-1 -1;
#X text 1229 286 27 Eb3;
#X text 1182 382 26 D3;
#X text 1132 284 25 C#3;
#X text 1084 383 24 C3;
#X text 1671 393 36 C4;
#X obj 1084 360 tgl 15 0 empty empty empty 17 7 0 10 -262144 -1 -1
0 1;
#X obj 1083 208 select 24 25 26 27 28 29 30 31 32 33 34 35 36, f 107
;
#X obj 373 111 select 12 13 14 15 16 17 18 19 20 21 22 23, f 99;
#X obj 394 344 s selectSpeaker;
#X msg 396 296 1;
#X msg 491 296 2;
#X msg 589 299 3;
#X msg 639 299 4;
#X msg 735 301 5;
#X msg 835 301 6;
#X obj 281 296 s mainVolume;
#X obj 969 238 s soundChannel;
#X msg 442 208 1;
#X msg 540 205 2;
#X msg 687 208 3;
#X msg 885 211 5;
#X msg 785 208 4;
#X obj 1152 317 s referenceTrack;
#X connect 1 0 0 0;
#X connect 2 0 1 0;
#X connect 3 0 108 0;
#X connect 5 0 3 0;
#X connect 6 0 5 0;
#X connect 6 1 3 1;
#X connect 12 0 121 0;
#X connect 14 0 115 0;
#X connect 16 0 122 0;
#X connect 18 0 114 0;
#X connect 20 0 120 0;
#X connect 22 0 113 0;
#X connect 24 0 112 0;
#X connect 34 0 119 0;
#X connect 36 0 111 0;
#X connect 38 0 118 0;
#X connect 39 0 110 0;
#X connect 46 0 45 0;
#X connect 47 0 56 0;
#X connect 48 0 59 0;
#X connect 49 0 65 0;
#X connect 50 0 62 0;
#X connect 51 0 45 0;
#X connect 51 0 46 0;
#X connect 53 0 54 0;
#X connect 54 0 55 0;
#X connect 56 0 53 0;
#X connect 57 0 116 0;
#X connect 59 0 57 0;
#X connect 60 0 66 0;
#X connect 62 0 60 0;
#X connect 63 0 64 0;
#X connect 64 0 67 0;
#X connect 65 0 63 0;
#X connect 69 0 68 0;
#X connect 98 0 123 0;
#X connect 107 0 106 0;
#X connect 107 0 100 0;
#X connect 107 1 98 0;
#X connect 107 1 99 0;
#X connect 107 2 97 0;
#X connect 107 2 96 0;
#X connect 107 3 94 0;
#X connect 107 3 95 0;
#X connect 107 4 84 0;
#X connect 107 4 85 0;
#X connect 107 5 82 0;
#X connect 107 5 83 0;
#X connect 107 6 80 0;
#X connect 107 6 81 0;
#X connect 107 7 78 0;
#X connect 107 7 79 0;
#X connect 107 8 76 0;
#X connect 107 8 77 0;
#X connect 107 9 74 0;
#X connect 107 9 75 0;
#X connect 107 10 72 0;
#X connect 107 10 73 0;
#X connect 107 11 70 0;
#X connect 107 12 68 0;
#X connect 108 0 44 0;
#X connect 108 0 39 0;
#X connect 108 1 37 0;
#X connect 108 1 38 0;
#X connect 108 2 36 0;
#X connect 108 2 35 0;
#X connect 108 3 33 0;
#X connect 108 3 34 0;
#X connect 108 4 23 0;
#X connect 108 4 24 0;
#X connect 108 5 21 0;
#X connect 108 5 22 0;
#X connect 108 6 19 0;
#X connect 108 6 20 0;
#X connect 108 7 17 0;
#X connect 108 7 18 0;
#X connect 108 8 15 0;
#X connect 108 8 16 0;
#X connect 108 9 13 0;
#X connect 108 9 14 0;
#X connect 108 10 11 0;
#X connect 108 10 12 0;
#X connect 108 11 9 0;
#X connect 108 12 107 0;
#X connect 110 0 109 0;
#X connect 111 0 109 0;
#X connect 112 0 109 0;
#X connect 113 0 109 0;
#X connect 114 0 109 0;
#X connect 115 0 109 0;
#X connect 118 0 117 0;
#X connect 119 0 117 0;
#X connect 120 0 117 0;
#X connect 121 0 117 0;
#X connect 122 0 117 0;
#X restore 120 -137 pd midicontrollers;
#N canvas 476 557 664 447 osc-kontrolleur 0;
#X obj 87 92 pipelist;
#X obj 87 66 unpackOSC;
#X obj 87 40 udpreceive 44444;
#X obj 88 117 routeOSC /touches;
#X obj 86 185 list split 1;
#X obj 86 217 expr if ($f1 <= 260 \, 0 \, if ($f1 > 260 && $f1 <= 520
\, 1 \, if ($f1 > 520 && $f1 <= 780 \, 2 \, if ($f1 > 780 && $f1 <=
1040 \, 3 \, 4))));
#X obj 88 162 list split 1;
#X obj 88 140 list split 1;
#X obj 493 201 / 702;
#X obj 86 266 s midicntrls;
#X obj 493 268 s midivol;
#X obj 493 181 - 10;
#X obj 493 221 * 1050;
#X obj 493 244 expr if ($f1 < 0 \, 0 \, if ($f1 > 1000 \, 1000 \, $f1))
;
#X connect 0 0 3 0;
#X connect 1 0 0 0;
#X connect 1 1 0 1;
#X connect 2 0 1 0;
#X connect 3 0 7 0;
#X connect 4 0 5 0;
#X connect 5 0 9 0;
#X connect 6 0 11 0;
#X connect 6 1 4 0;
#X connect 7 1 6 0;
#X connect 8 0 12 0;
#X connect 11 0 8 0;
#X connect 12 0 13 0;
#X connect 13 0 10 0;
#X restore 120 -175 pd osc-kontrolleur;
#N canvas 243 415 894 390 osc-control 0;
#X obj 79 73 pipelist;
#X obj 79 45 unpackOSC;
#X obj 22 168 print;
#X obj 199 61 tgl 15 0 empty empty empty 17 7 0 10 -262144 -1 -1 0
1;
#X obj 242 41 bng 15 250 50 0 empty empty empty 17 7 0 10 -262144 -1
-1;
#X obj 78 14 udpreceive 10001;
#X obj 530 84 udpsend;
#X msg 552 49 connect 192.168.1.86 8000;
#X obj 476 38 packOSC;
#X msg 468 8 send /hi 1;
#X obj 83 151 s selectSpeaker;
#X obj 83 95 routeOSC /oscControl;
#X obj 193 152 s soundChannel;
#X obj 83 125 routeOSC /selectSpeaker /soundChannel /soundLevel;
#X obj 293 152 s soundLevel;
#X connect 0 0 11 0;
#X connect 1 0 0 0;
#X connect 1 1 0 1;
#X connect 5 0 1 0;
#X connect 7 0 6 0;
#X connect 8 0 6 0;
#X connect 9 0 8 0;
#X connect 11 0 2 0;
#X connect 11 0 13 0;
#X connect 13 0 10 0;
#X connect 13 1 12 0;
#X connect 13 2 14 0;
#X restore 120 -156 pd osc-control;
#N canvas 560 446 450 300 pd_interface 0;
#X obj 84 73 vsl 20 200 0 1000 0 0 empty empty empty 0 -9 0 10 -261234
-1 -1 0 1;
#X obj 305 39 vradio 30 1 0 5 empty empty empty 0 -8 0 10 -204786 -1
-1 0;
#X msg 151 16 0;
#N canvas 232 106 858 495 midsidebox 0;
#X msg 137 172 0;
#X obj 104 199 s mutemain;
#X msg 104 173 1;
#X msg 180 173 0;
#X obj 180 199 s mutem;
#X msg 214 173 1;
#X msg 293 173 1;
#X obj 259 199 s mutes;
#X msg 259 173 0;
#X obj 99 57 inlet;
#N canvas 643 378 576 300 side 0;
#X obj 167 136 +~, f 2;
#X obj 126 105 *~ -0.5;
#X obj 194 104 *~ 0.5;
#X obj 19 164 loadbang;
#X msg -12 211 1;
#X obj 170 177 *~;
#X msg 21 195 -1;
#X obj 97 266 s~ l-o2;
#X obj 177 262 s~ r-o2;
#X obj 201 195 s~ fftside;
#X obj 181 74 r~ r;
#X obj 152 74 r~ l;
#X obj 323 99 r mutes;
#X obj 95 238 *~;
#X obj 175 238 *~ 1;
#X connect 0 0 5 0;
#X connect 1 0 0 0;
#X connect 2 0 0 0;
#X connect 3 0 6 0;
#X connect 4 0 13 1;
#X connect 5 0 13 0;
#X connect 5 0 14 0;
#X connect 6 0 13 1;
#X connect 10 0 2 0;
#X connect 11 0 1 0;
#X connect 12 0 5 1;
#X connect 13 0 7 0;
#X connect 14 0 8 0;
#X restore 259 227 pd side;
#N canvas 843 80 450 300 mono 0;
#X obj 156 82 +~;
#X obj 162 130 *~;
#X obj 159 108 *~ 0.5;
#X obj 150 164 s~ l-o3;
#X obj 201 164 s~ r-o3;
#X obj 265 57 r~ r;
#X obj 150 44 r~ l;
#X obj 214 107 r mutem;
#X connect 0 0 2 0;
#X connect 1 0 3 0;
#X connect 1 0 4 0;
#X connect 2 0 1 0;
#X connect 5 0 0 1;
#X connect 6 0 0 0;
#X connect 7 0 1 1;
#X restore 179 227 pd mono;
#X obj 125 406 dac~ 1 2;
#X obj 188 326 r~ r-o;
#X obj 126 326 r~ l-o;
#X obj 126 349 r~ l-o2;
#X obj 188 349 r~ r-o2;
#X obj 126 372 r~ l-o3;
#X obj 188 372 r~ r-o3;
#N canvas 167 36 1440 851 stereo 0;
#X obj 190 100 *~;
#X obj 131 97 *~;
#X obj 130 126 s~ l-o;
#X obj 190 125 s~ r-o;
#X obj 267 61 r mutemain;
#X obj 195 55 r~ r;
#X obj 132 56 r~ l;
#X connect 0 0 3 0;
#X connect 1 0 2 0;
#X connect 4 0 0 1;
#X connect 4 0 1 1;
#X connect 5 0 0 0;
#X connect 6 0 1 0;
#X restore 104 226 pd stereo;
#X msg 381 173 1;
#X msg 347 173 0;
#X obj 99 89 select 0 1 2 3 4, f 81;
#X obj 126 304 r~ l-l;
#X obj 188 304 r~ r-r;
#X msg 467 173 1;
#X msg 433 173 0;
#N canvas 0 23 1440 851 leftright 0;
#X obj 218 100 *~;
#X obj 121 101 *~;
#X obj 195 55 r~ r;
#X obj 57 59 r~ l;
#X obj 250 56 r muter;
#X obj 126 151 s~ l-l;
#X obj 189 152 s~ r-r;
#X obj 123 57 r mutel;
#X connect 0 0 6 0;
#X connect 1 0 5 0;
#X connect 2 0 0 0;
#X connect 3 0 1 0;
#X connect 4 0 0 1;
#X connect 7 0 1 1;
#X restore 377 229 pd leftright;
#X obj 433 199 s muter;
#X obj 347 199 s mutel;
#X connect 0 0 1 0;
#X connect 2 0 1 0;
#X connect 3 0 4 0;
#X connect 5 0 4 0;
#X connect 6 0 7 0;
#X connect 8 0 7 0;
#X connect 9 0 22 0;
#X connect 13 0 12 1;
#X connect 14 0 12 0;
#X connect 15 0 12 0;
#X connect 16 0 12 1;
#X connect 17 0 12 0;
#X connect 18 0 12 1;
#X connect 20 0 29 0;
#X connect 21 0 29 0;
#X connect 22 0 2 0;
#X connect 22 0 3 0;
#X connect 22 0 8 0;
#X connect 22 0 21 0;
#X connect 22 0 26 0;
#X connect 22 1 0 0;
#X connect 22 1 5 0;
#X connect 22 1 8 0;
#X connect 22 1 21 0;
#X connect 22 1 26 0;
#X connect 22 2 0 0;
#X connect 22 2 6 0;
#X connect 22 2 3 0;
#X connect 22 2 21 0;
#X connect 22 2 26 0;
#X connect 22 3 20 0;
#X connect 22 3 8 0;
#X connect 22 3 3 0;
#X connect 22 3 0 0;
#X connect 22 3 26 0;
#X connect 22 4 25 0;
#X connect 22 4 21 0;
#X connect 22 4 8 0;
#X connect 22 4 0 0;
#X connect 22 4 3 0;
#X connect 23 0 12 0;
#X connect 24 0 12 1;
#X connect 25 0 28 0;
#X connect 26 0 28 0;
#X restore 305 203 pd midsidebox;
#X floatatom 85 310 5 0 0 0 - - -;
#X text 249 46 stereo;
#X text 261 76 mono;
#X text 260 107 side;
#X text 259 136 left;
#X text 254 167 right;
#X obj 305 16 r midicntrls;
#N canvas 659 385 450 300 volume-slider 0;
#X obj 156 52 inlet;
#X obj 159 224 outlet;
#X obj 189 114 r midivol;
#X obj 162 169 * 1000;
#X connect 0 0 3 0;
#X connect 2 0 3 0;
#X connect 3 0 1 0;
#X restore 83 39 pd volume-slider;
#N canvas 433 563 450 300 inputvolumes 0;
#X obj 244 36 inlet;
#X obj 158 217 s~ r;
#X obj 204 218 s~ l;
#N canvas 158 223 450 300 monovolume 0;
#X obj 81 198 *~;
#X msg 162 135 \$1 20;
#X obj 125 180 line~;
#X obj 252 43 vsl 15 50 0.01 1 0 0 empty empty vol -20 5 0 10 -262144
-1 -1 0 1;
#X obj 102 61 tgl 15 0 empty empty mute -4 -6 0 10 -262144 -1 -1 0
1;
#X obj 28 113 inlet~;
#X obj 81 270 outlet~;
#X obj 81 240 *~;
#X msg 190 192 \$1 20;
#X obj 122 235 line~;
#X obj 125 104 * -1;
#X obj 125 128 + 1;
#X obj 151 49 loadbang;
#X msg 151 74 0;
#X obj 63 33 inlet;
#X connect 0 0 7 0;
#X connect 1 0 2 0;
#X connect 2 0 0 1;
#X connect 3 0 1 0;
#X connect 4 0 10 0;
#X connect 5 0 0 0;
#X connect 7 0 6 0;
#X connect 8 0 9 0;
#X connect 9 0 7 1;
#X connect 10 0 11 0;
#X connect 11 0 8 0;
#X connect 12 0 13 0;
#X connect 13 0 10 0;
#X connect 14 0 4 0;
#X restore 354 46 pd monovolume;
#X obj 28 77 bng 15 250 50 0 empty empty empty 17 7 0 10 -262144 -1
-1;
#X obj 28 97 metro 300;
#X obj 30 122 snapshot~;
#X obj 155 34 adc~ 1 2 3 4;
#X obj 102 120 r mute;
#X obj 188 140 *~;
#X obj 152 141 *~;
#X obj 163 189 *~;
#X obj 205 192 *~;
#X obj 250 173 / 1000;
#X obj 256 243 outlet;
#X obj 351 131 vu 15 120 empty empty -1 -8 0 10 -66577 -1 1 0;
#X floatatom 30 164 5 0 0 0 - - -;
#X connect 0 0 13 0;
#X connect 4 0 5 0;
#X connect 5 0 6 0;
#X connect 6 0 16 0;
#X connect 7 0 10 0;
#X connect 7 1 9 0;
#X connect 8 0 9 1;
#X connect 8 0 10 1;
#X connect 9 0 12 0;
#X connect 10 0 11 0;
#X connect 11 0 1 0;
#X connect 12 0 2 0;
#X connect 13 0 11 1;
#X connect 13 0 12 1;
#X connect 13 0 14 0;
#X restore 85 289 pd inputvolumes;
#X msg 118 16 0.5;
#X msg 83 16 1;
#X obj 35 77 vu 15 120 empty empty -1 -8 0 10 -66577 -1 1 0;
#X connect 0 0 12 0;
#X connect 1 0 3 0;
#X connect 2 0 11 0;
#X connect 10 0 1 0;
#X connect 11 0 0 0;
#X connect 12 0 4 0;
#X connect 13 0 11 0;
#X connect 14 0 11 0;
#X restore 15 -175 pd pd_interface;
#N canvas 167 391 1040 544 totalmix-sender 0;
#N canvas 445 443 747 380 totalMixUdpSender 0;
#X obj 346 239 udpsend;
#X obj 166 74 loadbang;
#X msg 77 215 \; pd dsp \$1;
#X obj 82 181 tgl 15 0 empty empty empty 17 7 0 10 -262144 -1 -1 1
1;
#X obj 198 103 metro 1000;
#X obj 229 129 bng 15 250 50 0 empty empty empty 17 7 0 10 -262144
-1 -1;
#X obj 178 253 != 1;
#X obj 397 142 packOSC;
#X msg 198 219 disconnect;
#X floatatom 174 277 5 0 0 0 - - -;
#X obj 171 102 tgl 15 0 empty empty empty 17 7 0 10 -262144 -1 -1 0
1;
#X msg 264 40 sendtyped /test i 1;
#X msg 228 188 connect 127.0.0.1 7001;
#X obj 568 117 print;
#X msg 334 70 1;
#X obj 388 6 r toRME;
#X obj 602 232 pipelist;
#X obj 602 210 unpackOSC;
#X obj 602 184 udpreceive 9001;
#X connect 0 0 6 0;
#X connect 1 0 4 0;
#X connect 1 0 3 0;
#X connect 4 0 5 0;
#X connect 4 0 12 0;
#X connect 6 0 9 0;
#X connect 6 0 10 0;
#X connect 7 0 0 0;
#X connect 8 0 0 0;
#X connect 10 0 4 0;
#X connect 11 0 7 0;
#X connect 12 0 0 0;
#X connect 15 0 7 0;
#X connect 17 0 16 0;
#X connect 17 1 16 1;
#X connect 18 0 17 0;
#X restore 138 237 pd totalMixUdpSender;
#X floatatom 229 129 5 0 0 0 - - -;
#X obj 294 115 r midiPhones1Volume;
#X obj 148 206 s toRME;
#X msg 330 196 sendtyped /1/mastervolume f \$1;
#X msg 295 143 sendtyped /1/volume4 f \$1;
#X obj 459 96 r midiSpeakers3Volume;
#X msg 588 341 sendtyped /1/track- f \$1;
#X msg 370 239 sendtyped /1/track+ f 3;
#X msg 458 144 sendtyped /1/volume7 f \$1;
#X obj 601 305 s toRME;
#X obj 717 149 unpack f f f f f f;
#X msg 758 41 0 1 1 1 1 1;
#X msg 838 42 1 0 1 1 1 1;
#X msg 574 212 sendtyped /1/mute/1/1 f \$1;
#X msg 611 249 sendtyped /1/mute/1/3 f \$1;
#X msg 592 232 sendtyped /1/mute/1/2 f \$1;
#X msg 636 269 sendtyped /1/mute/1/4 f \$1;
#X msg 768 210 sendtyped /1/mute/1/5 f \$1;
#X msg 786 230 sendtyped /1/mute/1/6 f \$1;
#X msg 805 247 sendtyped /1/mute/1/7 f \$1;
#X msg 830 263 sendtyped /1/mute/1/8 f \$1;
#X msg 916 41 1 1 0 1 1 1;
#X msg 993 40 1 1 1 0 1 1;
#X msg 1074 39 1 1 1 1 0 1;
#X msg 1149 38 1 1 1 1 1 0;
#X obj 813 301 s toRME;
#X obj 680 -9 r selectSpeaker;
#X obj 681 17 select 0 1 2 3 4 5 6, f 91;
#X msg 680 41 1 1 1 1 1 1;
#X obj 29 61 r mainVolume;
#X obj 155 32 r soundLevel;
#X obj 155 62 select 1 2;
#X msg 149 90 0.5;
#X msg 193 91 0.1;
#X msg 29 178 sendtyped /1/volume3 f \$1;
#X connect 2 0 1 0;
#X connect 2 0 5 0;
#X connect 4 0 3 0;
#X connect 5 0 3 0;
#X connect 6 0 9 0;
#X connect 7 0 3 0;
#X connect 8 0 3 0;
#X connect 9 0 3 0;
#X connect 11 0 15 0;
#X connect 11 1 17 0;
#X connect 11 2 18 0;
#X connect 11 3 19 0;
#X connect 11 4 20 0;
#X connect 11 5 21 0;
#X connect 12 0 11 0;
#X connect 13 0 11 0;
#X connect 14 0 10 0;
#X connect 15 0 10 0;
#X connect 16 0 10 0;
#X connect 17 0 10 0;
#X connect 18 0 26 0;
#X connect 19 0 26 0;
#X connect 20 0 26 0;
#X connect 21 0 26 0;
#X connect 22 0 11 0;
#X connect 23 0 11 0;
#X connect 24 0 11 0;
#X connect 25 0 11 0;
#X connect 27 0 28 0;
#X connect 28 0 29 0;
#X connect 28 1 12 0;
#X connect 28 2 13 0;
#X connect 28 3 22 0;
#X connect 28 4 23 0;
#X connect 28 5 24 0;
#X connect 28 6 25 0;
#X connect 29 0 11 0;
#X connect 30 0 1 0;
#X connect 30 0 35 0;
#X connect 31 0 32 0;
#X connect 32 0 33 0;
#X connect 32 1 34 0;
#X connect 33 0 35 0;
#X connect 34 0 35 0;
#X connect 35 0 3 0;
#X restore 246 -174 pd totalmix-sender;
#N canvas -89 573 1357 437 REAPER-sender 0;
#X obj 305 244 s toREAPER;
#N canvas 445 443 747 380 REAPERUdpSender 0;
#X obj 346 239 udpsend;
#X obj 166 74 loadbang;
#X msg 77 215 \; pd dsp \$1;
#X obj 82 181 tgl 15 0 empty empty empty 17 7 0 10 -262144 -1 -1 1
1;
#X obj 198 103 metro 1000;
#X obj 229 129 bng 15 250 50 0 empty empty empty 17 7 0 10 -262144
-1 -1;
#X obj 178 253 != 1;
#X obj 397 142 packOSC;
#X msg 198 219 disconnect;
#X floatatom 174 277 5 0 0 0 - - -;
#X obj 171 102 tgl 15 0 empty empty empty 17 7 0 10 -262144 -1 -1 0
1;
#X msg 264 40 sendtyped /test i 1;
#X obj 568 117 print;
#X msg 334 70 1;
#X msg 228 188 connect 127.0.0.1 8000;
#X obj 388 6 r toREAPER;
#X connect 0 0 6 0;
#X connect 1 0 4 0;
#X connect 1 0 3 0;
#X connect 4 0 5 0;
#X connect 4 0 14 0;
#X connect 6 0 9 0;
#X connect 6 0 10 0;
#X connect 7 0 0 0;
#X connect 8 0 0 0;
#X connect 10 0 4 0;
#X connect 11 0 7 0;
#X connect 14 0 0 0;
#X connect 15 0 7 0;
#X restore 558 299 pd REAPERUdpSender;
#X floatatom 478 42 5 0 0 0 - - -;
#X obj 57 22 r midiPhones1Volume;
#X obj 369 20 r midiLeft;
#X obj 443 21 r midiRight;
#X obj 202 22 r midiMid;
#X obj 290 21 r midiSide;
#X msg 202 43 sendtyped /midiMid f \$1;
#X msg 290 78 sendtyped /midiSide f \$1;
#X obj 443 63 / 2;
#X msg 443 107 sendtyped /midiSidePan f \$1;
#X msg 369 133 sendtyped /midiMidPan f \$1;
#X obj 443 43 + 1;
#X obj 369 106 / 2;
#X obj 369 40 + 0;
#X obj 837 117 unpack f f f f;
#X obj 848 239 s toREAPER;
#X msg 880 74 1 0 0.5 0.5;
#X msg 974 73 0 0 0 0;
#X msg 1042 73 0 0 1 1;
#X msg 1146 87 sendtyped /midiReferenceAB f \$1;
#X obj 1146 111 s toREAPER;
#X floatatom 1147 59 5 0 0 0 - - -;
#X obj -39 23 r mainVolume;
#X obj 697 44 select 1 2 3 4 5, f 65;
#X obj 697 21 r soundChannel;
#X msg 901 170 sendtyped /midPan f \$1;
#X msg 984 194 sendtyped /sidePan f \$1;
#X msg 803 194 sendtyped /sideChannel f \$1;
#X msg 697 74 0 0 0.5 0.5;
#X msg 786 74 0 1 0.5 0.5;
#X msg 727 171 sendtyped /midChannel f \$1;
#X obj 1147 39 r referenceTrack;
#X connect 4 0 15 0;
#X connect 5 0 2 0;
#X connect 5 0 13 0;
#X connect 6 0 8 0;
#X connect 7 0 9 0;
#X connect 8 0 0 0;
#X connect 9 0 0 0;
#X connect 10 0 11 0;
#X connect 10 0 12 0;
#X connect 11 0 0 0;
#X connect 12 0 0 0;
#X connect 13 0 10 0;
#X connect 14 0 11 0;
#X connect 14 0 12 0;
#X connect 15 0 14 0;
#X connect 16 0 32 0;
#X connect 16 1 29 0;
#X connect 16 2 27 0;
#X connect 16 3 28 0;
#X connect 18 0 16 0;
#X connect 19 0 16 0;
#X connect 20 0 16 0;
#X connect 21 0 22 0;
#X connect 25 0 30 0;
#X connect 25 1 31 0;
#X connect 25 2 18 0;
#X connect 25 3 19 0;
#X connect 25 4 20 0;
#X connect 26 0 25 0;
#X connect 27 0 17 0;
#X connect 28 0 17 0;
#X connect 29 0 17 0;
#X connect 30 0 16 0;
#X connect 31 0 16 0;
#X connect 32 0 17 0;
#X connect 33 0 21 0;
#X connect 33 0 23 0;
#X restore 246 -155 pd REAPER-sender;
