#N canvas 476 206 654 433 10;
#X obj 51 137 adc~ 1 2;
#X obj 299 475 dac~ 1 2;
#N canvas 158 223 450 300 monovolume 0;
#X obj 81 198 *~;
#X msg 125 160 \$1 20;
#X obj 125 180 line~;
#X obj 126 17 vsl 15 50 0.01 1 0 0 empty empty vol -20 5 0 10 -262144
-1 -1 0 1;
#X obj 102 61 tgl 15 0 empty empty mute -4 -6 0 10 -262144 -1 -1 0
1;
#X obj 28 113 inlet~;
#X obj 81 270 outlet~;
#X obj 81 240 *~;
#X msg 125 202 \$1 20;
#X obj 125 222 line~;
#X obj 125 104 * -1;
#X obj 125 128 + 1;
#X obj 151 49 loadbang;
#X msg 151 74 0;
#X obj 63 33 inlet;
#X connect 0 0 7 0;
#X connect 1 0 2 0;
#X connect 2 0 0 1;
#X connect 3 0 1 0;
#X connect 4 0 10 0;
#X connect 5 0 0 0;
#X connect 7 0 6 0;
#X connect 8 0 9 0;
#X connect 9 0 7 1;
#X connect 10 0 11 0;
#X connect 11 0 8 0;
#X connect 12 0 13 0;
#X connect 13 0 10 0;
#X connect 14 0 4 0;
#X restore 534 385 pd monovolume;
#N canvas 1043 507 450 300 side 0;
#X obj 126 43 inlet~;
#X obj 192 47 inlet~;
#X obj 104 237 outlet~;
#X obj 173 239 outlet~;
#X obj 291 45 inlet;
#X obj 167 136 +~, f 2;
#X obj 126 105 *~ -1;
#N canvas 122 174 450 300 mutemon 0;
#X obj 126 43 inlet~;
#X obj 128 161 outlet~;
#X obj 131 97 *~ 1;
#X obj 291 45 inlet;
#X connect 0 0 2 0;
#X connect 2 0 1 0;
#X connect 3 0 2 1;
#X restore 146 190 pd mutemon;
#X obj 167 162 *~ -1;
#X obj 195 79 *~;
#X obj 137 79 *~;
#X connect 0 0 10 0;
#X connect 1 0 9 0;
#X connect 4 0 9 1;
#X connect 4 0 10 1;
#X connect 5 0 8 0;
#X connect 6 0 5 0;
#X connect 7 0 2 0;
#X connect 7 0 3 0;
#X connect 8 0 7 0;
#X connect 9 0 5 1;
#X connect 10 0 6 0;
#X restore 508 264 pd side;
#N canvas 1 23 450 300 stvol 0;
#X obj 126 43 inlet~;
#X obj 192 47 inlet~;
#X obj 104 212 outlet~;
#X obj 179 215 outlet~;
#X obj 125 105 *~;
#X obj 193 108 *~;
#X obj 307 38 inlet;
#X obj 305 69 / 100;
#X connect 0 0 4 0;
#X connect 1 0 5 0;
#X connect 4 0 2 0;
#X connect 5 0 3 0;
#X connect 6 0 7 0;
#X connect 7 0 4 1;
#X connect 7 0 5 1;
#X restore 49 171 pd stvol;
#X obj 49 195 s~ r;
#X obj 87 196 s~ l;
#X obj 19 40 vsl 15 128 0 127 0 0 empty empty empty 0 -9 0 10 -262144
-1 -1 8900 1;
#X obj 5 -7 loadbang;
#X msg 12 8 80;
#X obj 122 246 r~ r;
#X obj 538 242 r~ r;
#X obj 80 246 r~ l;
#X obj 508 242 r~ l;
#N canvas 306 146 450 300 mute 0;
#X obj 126 43 inlet~;
#X obj 192 47 inlet~;
#X obj 128 161 outlet~;
#X obj 196 160 outlet~;
#X obj 291 45 inlet;
#X obj 190 100 *~;
#X obj 131 97 *~;
#X connect 0 0 6 0;
#X connect 1 0 5 0;
#X connect 4 0 5 1;
#X connect 4 0 6 1;
#X connect 5 0 3 0;
#X connect 6 0 2 0;
#X restore 81 271 pd mute;
#N canvas 519 367 450 300 mono 0;
#X obj 126 43 inlet~;
#X obj 199 41 inlet~;
#X obj 128 160 outlet~;
#X obj 196 160 outlet~;
#X obj 257 52 inlet;
#X obj 156 82 +~;
#X obj 175 104 *~;
#X obj 169 123 *~ 0.5;
#X connect 0 0 5 0;
#X connect 1 0 5 1;
#X connect 4 0 6 1;
#X connect 5 0 6 0;
#X connect 6 0 7 0;
#X connect 7 0 2 0;
#X connect 7 0 3 0;
#X restore 383 200 pd mono;
#X obj 412 176 r~ r;
#X obj 382 176 r~ l;
#X obj 84 296 s~ l-o;
#X obj 136 294 s~ r-o;
#X obj 366 349 r~ r-o;
#X obj 301 354 r~ l-o;
#X obj 506 285 s~ l-o2;
#X obj 304 377 r~ l-o2;
#X obj 370 372 r~ r-o2;
#X obj 556 285 s~ r-o2;
#X obj 381 223 s~ l-o3;
#X obj 432 221 s~ r-o3;
#X obj 304 403 r~ l-o3;
#X obj 370 398 r~ r-o3;
#X obj 298 0 select 0 1 2;
#X msg 248 47 0;
#X obj 157 246 r mutemain;
#X obj 203 82 s mutemain;
#X msg 212 45 1;
#X msg 288 47 0;
#X obj 571 241 r mutes;
#X obj 288 90 s mutem;
#X obj 451 175 r mutem;
#X msg 322 47 1;
#X msg 408 47 1;
#X obj 368 86 s mutes;
#X msg 367 48 0;
#X text 166 -140 0 - stereo \; 1 - mono \; 2 - side;
#X obj 250 -141 vradio 15 1 0 8 empty empty empty 0 -8 0 10 -262144
-1 -1 0;
#X connect 0 0 4 0;
#X connect 0 1 4 1;
#X connect 3 0 22 0;
#X connect 3 1 25 0;
#X connect 4 0 5 0;
#X connect 4 1 6 0;
#X connect 7 0 4 2;
#X connect 8 0 9 0;
#X connect 9 0 7 0;
#X connect 10 0 14 1;
#X connect 11 0 3 1;
#X connect 12 0 14 0;
#X connect 13 0 3 0;
#X connect 14 0 18 0;
#X connect 14 1 19 0;
#X connect 15 0 26 0;
#X connect 15 1 27 0;
#X connect 16 0 15 1;
#X connect 17 0 15 0;
#X connect 20 0 1 1;
#X connect 21 0 1 0;
#X connect 23 0 1 0;
#X connect 24 0 1 1;
#X connect 28 0 1 0;
#X connect 29 0 1 1;
#X connect 30 0 34 0;
#X connect 30 0 35 0;
#X connect 30 1 31 0;
#X connect 30 1 39 0;
#X connect 30 1 42 0;
#X connect 30 2 31 0;
#X connect 30 2 40 0;
#X connect 30 2 35 0;
#X connect 31 0 33 0;
#X connect 32 0 14 2;
#X connect 34 0 33 0;
#X connect 35 0 37 0;
#X connect 36 0 3 2;
#X connect 38 0 15 2;
#X connect 39 0 37 0;
#X connect 40 0 41 0;
#X connect 42 0 41 0;
#X connect 44 0 30 0;
