#N canvas 781 154 545 430 10;
#X obj 167 84 osc~ 200;
#X obj 166 153 *~ 0.5;
#X obj 262 14 vsl 15 128 0 0.9 0 0 empty empty empty 0 -9 0 10 -262144
-1 -1 6200 1;
#X obj 129 205 snapshot~, f 14;
#X obj 29 46 loadbang;
#X msg 10 129 bang;
#X obj 16 193 metro;
#X msg 67 163 stop;
#X obj 36 83 t b b;
#X msg 171 42 200;
#X floatatom 171 63 5 0 0 0 - - -;
#X floatatom 346 371 5 0 0 0 - - -;
#X floatatom 289 371 5 0 0 0 - - -;
#X obj 39 296 netsend -u localhost 22222;
#X msg 31 272 connect localhost 22222;
#X msg 66 122 tempo 1 samp;
#X connect 0 0 1 0;
#X connect 1 0 3 0;
#X connect 2 0 1 1;
#X connect 3 0 13 0;
#X connect 4 0 8 0;
#X connect 4 0 9 0;
#X connect 5 0 6 0;
#X connect 6 0 3 0;
#X connect 7 0 6 0;
#X connect 8 0 5 0;
#X connect 8 1 15 0;
#X connect 9 0 10 0;
#X connect 10 0 0 0;
#X connect 14 0 13 0;
#X connect 15 0 6 0;
