#N canvas 126 10 1517 1075 10;
#X obj 62 29 loadbang;
#X obj 198 121 netsend -u -b;
#X msg 62 109 disconnect;
#X obj 371 27 adc~ 1 2;
#X obj 371 58 dac~ 1 2;
#X obj 32 29 bng 15 250 50 0 empty empty empty 17 7 0 10 -262144 -1
-1;
#X obj 32 69 bng 15 250 50 0 empty empty empty 17 7 0 10 -262144 -1
-1;
#X msg 62 69 connect localhost 15000;
#X obj 221 90 oscformat -f f hello;
#X obj 221 10 bng 15 250 50 0 empty empty empty 17 7 0 10 -262144 -1
-1;
#X msg 221 50 1;
#X msg 260 50 2;
#X obj 260 10 bng 15 250 50 0 empty empty empty 17 7 0 10 -262144 -1
-1;
#X connect 0 0 7 0;
#X connect 2 0 1 0;
#X connect 3 0 4 0;
#X connect 3 1 4 1;
#X connect 5 0 7 0;
#X connect 6 0 2 0;
#X connect 7 0 1 0;
#X connect 8 0 1 0;
#X connect 9 0 10 0;
#X connect 10 0 8 0;
#X connect 11 0 8 0;
#X connect 12 0 11 0;
#X coords 0 -1 1 1 350 150 1 0 0;
