#N canvas 371 495 1455 1075 10;
#X obj 115 284 oscparse;
#X obj 115 308 list trim;
#X obj 876 978 loadbang;
#X msg 841 1035 disconnect;
#X text 87 3 receives port 11999;
#X text 51 31 sends to Reaper port 11902;
#X msg 1319 968 disconnect;
#X obj 115 256 netreceive -u -b 11999;
#X obj 814 952 prepend send;
#X obj 114 334 route oscChannels oscAbbeyRoad;
#X obj 201 364 route on near mid far, f 110;
#X obj 1304 922 loadbang;
#X obj 61 495 oscformat -f f oscAbbeyRoad/on;
#X obj 636 564 oscformat -f f oscAbbeyRoad/near;
#X obj 837 540 oscformat -f f oscAbbeyRoad/mid;
#X obj 1058 519 oscformat -f f oscAbbeyRoad/far;
#X msg 617 433 1 0 0;
#X msg 675 433 0 1 0;
#X msg 734 434 0 0 1;
#X obj 632 469 unpack f f f;
#X obj 1217 993 netsend -u -b;
#X msg 1305 947 connect localhost 11997;
#X msg 1015 1037 disconnect;
#X obj 1014 990 loadbang;
#X obj 927 1061 netsend -u -b;
#X msg 1015 1015 connect localhost 11902;
#X obj 268 518 oscformat -f f oscAbbeyRoad/selectSpeaker;
#X msg 268 494 0;
#X msg 339 496 1;
#X msg 303 495 0.5;
#X obj 448 118 adc~ 1 2;
#X obj 462 175 dac~ 1 2;
#X obj 126 410 select 0 1;
#X msg 158 439 0;
#X msg 124 437 1;
#X obj 636 584 s \$0-toMIDITB;
#X obj 842 563 s \$0-toMIDITB;
#X obj 1058 541 s \$0-toMIDITB;
#X obj 1178 968 r \$0-toMIDITB;
#X obj 269 540 s \$0-toREAPER;
#X obj 61 515 s \$0-toREAPER;
#X obj 912 1025 r \$0-toREAPER;
#X obj -547 834 unpack f f f f f, f 109;
#X obj -530 712 s \$0-sld-1-r;
#X obj -373 862 s \$0-muteMid;
#X obj -535 861 s \$0-muteStereo;
#X obj -201 864 s \$0-muteSide;
#X msg -543 684 0;
#X obj -369 709 s \$0-sld-1-r;
#X msg -381 684 1;
#X obj -210 708 s \$0-sld-1-r;
#X msg -222 683 2;
#X obj -547 894 oscformat -f f oscChannels/stereo;
#X obj -384 936 oscformat -f f oscChannels/mid;
#X msg -547 792 1 0 0 0 0;
#X msg -384 792 0 1 0 0 0;
#X msg -221 794 0 0 1 0 0;
#X obj -218 894 oscformat -f f oscChannels/side;
#X msg -63 687 3;
#X msg 98 687 4;
#X obj -34 711 s \$0-sld-1-r;
#X obj 118 708 s \$0-sld-1-r;
#X msg -61 795 0 0 0 1 0;
#X msg 98 796 0 0 0 0 1;
#X obj -47 862 s \$0-muteLeft;
#X obj 123 864 s \$0-muteRight;
#X obj -58 942 oscformat -f f oscChannels/left;
#X obj 110 888 oscformat -f f oscChannels/right;
#X obj -540 625 route stereo mid side left right level, f 133;
#X obj -547 914 s \$0-toMIDITB;
#X obj -384 956 s \$0-toMIDITB;
#X obj -218 914 s \$0-toMIDITB;
#X obj -58 962 s \$0-toMIDITB;
#X obj 110 908 s \$0-toMIDITB;
#X obj 261 775 oscformat -f f oscChannels/level;
#X obj 444 838 r \$0-sld-1-r;
#X obj 445 861 oscformat -f f oscChannels/selector;
#X obj 768 923 loadbang;
#X obj 716 961 metro 1;
#X obj 698 975 bng 15 250 50 0 empty empty empty 17 7 0 10 -262144
-1 -1;
#X obj 672 1067 != 1;
#X obj 667 962 tgl 15 0 empty empty empty 17 7 0 10 -262144 -1 -1 0
1;
#X msg 827 1014 connect localhost 11905;
#X obj 445 881 s \$0-toChannelSelector;
#X obj 813 1058 netsend -u -b;
#X obj 963 1037 r \$0-toChannelSelector;
#X text 2 16 sends to channels plugin port 11905;
#X obj 261 796 s \$0-toChannelSelector;
#X connect 0 0 1 0;
#X connect 1 0 9 0;
#X connect 3 0 84 0;
#X connect 6 0 20 0;
#X connect 7 0 0 0;
#X connect 8 0 84 0;
#X connect 9 0 68 0;
#X connect 9 1 10 0;
#X connect 10 0 32 0;
#X connect 10 1 16 0;
#X connect 10 1 27 0;
#X connect 10 2 17 0;
#X connect 10 2 29 0;
#X connect 10 3 18 0;
#X connect 10 3 28 0;
#X connect 11 0 21 0;
#X connect 12 0 40 0;
#X connect 13 0 35 0;
#X connect 14 0 36 0;
#X connect 15 0 37 0;
#X connect 16 0 19 0;
#X connect 17 0 19 0;
#X connect 18 0 19 0;
#X connect 19 0 13 0;
#X connect 19 1 14 0;
#X connect 19 2 15 0;
#X connect 21 0 20 0;
#X connect 22 0 24 0;
#X connect 23 0 25 0;
#X connect 25 0 24 0;
#X connect 26 0 39 0;
#X connect 27 0 26 0;
#X connect 28 0 26 0;
#X connect 29 0 26 0;
#X connect 30 0 31 0;
#X connect 30 1 31 1;
#X connect 32 0 34 0;
#X connect 32 1 33 0;
#X connect 33 0 12 0;
#X connect 34 0 12 0;
#X connect 38 0 20 0;
#X connect 41 0 24 0;
#X connect 42 0 45 0;
#X connect 42 0 52 0;
#X connect 42 1 44 0;
#X connect 42 1 53 0;
#X connect 42 2 46 0;
#X connect 42 2 57 0;
#X connect 42 3 64 0;
#X connect 42 3 66 0;
#X connect 42 4 65 0;
#X connect 42 4 67 0;
#X connect 47 0 43 0;
#X connect 47 0 54 0;
#X connect 49 0 48 0;
#X connect 49 0 55 0;
#X connect 51 0 50 0;
#X connect 51 0 56 0;
#X connect 52 0 69 0;
#X connect 53 0 70 0;
#X connect 54 0 42 0;
#X connect 55 0 42 0;
#X connect 56 0 42 0;
#X connect 57 0 71 0;
#X connect 58 0 60 0;
#X connect 58 0 62 0;
#X connect 59 0 61 0;
#X connect 59 0 63 0;
#X connect 62 0 42 0;
#X connect 63 0 42 0;
#X connect 66 0 72 0;
#X connect 67 0 73 0;
#X connect 68 0 47 0;
#X connect 68 1 49 0;
#X connect 68 2 51 0;
#X connect 68 3 58 0;
#X connect 68 4 59 0;
#X connect 68 5 74 0;
#X connect 74 0 87 0;
#X connect 75 0 76 0;
#X connect 76 0 83 0;
#X connect 77 0 82 0;
#X connect 78 0 79 0;
#X connect 78 0 82 0;
#X connect 80 0 81 0;
#X connect 81 0 78 0;
#X connect 82 0 84 0;
#X connect 84 0 80 0;
#X connect 85 0 84 0;
#X coords 0 -1 1 1 250 50 1 0 0;
