#N canvas 126 10 1517 1075 10;
#X obj 1310 703 loadbang;
#X obj 1447 795 netsend -u -b;
#X msg 1326 751 disconnect;
#X obj 124 676 unpack f f f f f, f 109;
#X obj 345 866 adc~ 1 2;
#X text 608 244 0 stereo 1 mid 2 side 3 left 4 right;
#X text 172 33 mono;
#X text 212 33 side;
#X text 252 34 left;
#X text 291 32 right;
#X obj 123 436 s \$0-sld-1-r;
#X obj 576 1020 +~, f 2;
#X obj 556 981 *~ -0.5;
#X obj 624 980 *~ 0.5;
#X obj 580 1046 *~;
#X obj 609 1027 r \$0-muteSide;
#X obj 298 704 s \$0-muteMid;
#X obj 136 703 s \$0-muteStereo;
#X obj 470 706 s \$0-muteSide;
#X obj 442 1073 +~;
#X obj 448 1121 *~;
#X obj 445 1099 *~ 0.5;
#X obj 492 1097 r \$0-muteMid;
#X msg 111 411 0;
#X obj 284 433 s \$0-sld-1-r;
#X msg 272 408 1;
#X obj 443 432 s \$0-sld-1-r;
#X msg 431 407 2;
#X msg 1311 726 connect localhost 11997;
#X obj 124 736 oscformat -f f oscChannels/stereo;
#X obj 288 780 oscformat -f f oscChannels/mid;
#X msg 124 634 1 0 0 0 0;
#X msg 287 634 0 1 0 0 0;
#X msg 450 636 0 0 1 0 0;
#X obj 453 736 oscformat -f f oscChannels/side;
#X msg 610 587 3;
#X msg 768 580 4;
#X obj 648 608 s \$0-sld-1-r;
#X obj 777 604 s \$0-sld-1-r;
#X msg 609 635 0 0 0 1 0;
#X msg 768 636 0 0 0 0 1;
#X obj 624 704 s \$0-muteLeft;
#X obj 794 706 s \$0-muteRight;
#X obj 617 763 oscformat -f f oscChannels/left;
#X obj 781 730 oscformat -f f oscChannels/right;
#X obj 371 1183 *~;
#X obj 297 1188 *~;
#X obj 837 946 *~;
#X obj 782 946 *~;
#X obj 800 914 r \$0-muteLeft;
#X obj 870 932 r \$0-muteRight;
#X obj 159 1153 r \$0-muteStereo;
#X msg 167 1116 1;
#X obj 113 349 route stereo mid side left right level, f 133;
#X obj 722 1295 *~;
#X obj 740 1330 dac~ 1 2;
#X obj 767 1293 *~;
#X obj 26 122 hsl 300 15 0 1 0 0 \$0-level-s \$0-level-r empty -2 -8
0 10 -261682 -1 -1 29900 1;
#X obj 911 417 line 0 1;
#X obj 911 394 pack;
#X obj 939 350 loadbang;
#X msg 939 372 2;
#X obj 907 449 s \$0-level-r;
#X obj 846 1243 r \$0-level-s;
#X obj 127 52 hradio 40 1 0 5 \$0-sld-1-s \$0-sld-1-r empty 0 -8 0
10 -204786 -1 -1 0;
#X text 125 33 stereo;
#X text 26 102 monitor level;
#X obj 833 64 oscparse;
#X obj 833 88 list trim;
#X obj 887 254 oscformat -f f oscAbbeyRoad/on;
#X obj 1228 460 oscformat -f f oscAbbeyRoad/near;
#X obj 1292 407 oscformat -f f oscAbbeyRoad/mid;
#X obj 1357 362 oscformat -f f oscAbbeyRoad/far;
#X msg 1273 296 1 0 0;
#X msg 1331 296 0 1 0;
#X msg 1390 297 0 0 1;
#X obj 1288 332 unpack f f f;
#X obj 1083 262 oscformat -f f oscAbbeyRoad/selectSpeaker;
#X msg 1084 239 0;
#X msg 1155 241 1;
#X msg 1119 240 0.5;
#X obj 919 185 select 0 1;
#X msg 951 214 0;
#X msg 917 212 1;
#X obj 1228 480 s \$0-toMIDITB;
#X obj 1297 430 s \$0-toMIDITB;
#X obj 1357 384 s \$0-toMIDITB;
#X obj 1085 285 s \$0-toREAPER;
#X obj 887 278 s \$0-toREAPER;
#X obj 166 1082 loadbang;
#X obj 1021 397 loadbang;
#X msg 1021 417 1;
#X text 1342 797 send to MidiBar;
#X obj 124 756 s \$0-toMIDITB;
#X obj 288 800 s \$0-toMIDITB;
#X obj 453 756 s \$0-toMIDITB;
#X obj 617 783 s \$0-toMIDITB;
#X obj 781 750 s \$0-toMIDITB;
#X obj 1447 773 r \$0-toMIDITB;
#X obj 1559 704 loadbang;
#X msg 1574 751 disconnect;
#X obj 1695 773 r \$0-toREAPER;
#X text 1590 797 send to REAPER;
#X obj 1695 795 netsend -u -b;
#X msg 1559 726 connect localhost 11903;
#X obj 843 165 oscformat -f f oscSonarworks/on;
#X msg 839 142 1;
#X obj 1710 301 s \$0-toREAPER;
#X obj 1710 279 oscformat -f f ref/On;
#X obj 1773 145 route on prev next;
#X obj 1710 211 tgl 15 0 empty empty empty 17 7 0 10 -262144 -1 -1
1 1;
#X obj 1709 163 loadbang;
#X msg 1709 183 1;
#X obj 832 114 route oscChannels oscAbbeyRoad ref, f 236;
#X obj 1755 187 bng 15 250 50 0 empty empty empty 17 7 0 10 -262144
-1 -1;
#X obj 2000 284 loadbang;
#X msg 2000 304 1;
#X obj 1955 458 oscformat -f f ref/number;
#X obj 988 52 bng 15 250 50 0 empty empty empty 17 7 0 10 -262144 -1
-1;
#X obj 1957 480 s \$0-toREAPER;
#X obj 1953 357 moses 0;
#X obj 1954 434 expr 0.03125 * $i1 - 0.03125;
#X obj 2011 390 moses 18;
#X msg 1921 294 -1;
#X msg 1959 294 1;
#X obj 1923 319 + 1;
#X obj 1865 274 loadbang;
#X obj 635 569 select 0 1 2;
#X obj 311 5 bng 15 250 50 0 \$0-connect empty empty 17 7 0 10 -262144
-1 -1;
#X text 265 5 reset;
#X obj 1227 706 r \$0-connect;
#X obj 1481 689 r \$0-connect;
#X obj 1710 238 sel 0 1;
#X msg 1710 259 1;
#X msg 1745 259 0;
#X obj 919 144 route on near mid far center, f 110;
#X obj 1465 316 s \$0-toREAPER;
#X obj 1465 292 oscformat -f f oscAbbeyRoad/center;
#X obj 833 36 netreceive -u -b 15200;
#X text 360 6 receive port 15200;
#X obj 640 128 print a;
#X connect 0 0 28 0;
#X connect 2 0 1 0;
#X connect 3 0 17 0;
#X connect 3 0 29 0;
#X connect 3 1 16 0;
#X connect 3 1 30 0;
#X connect 3 2 18 0;
#X connect 3 2 34 0;
#X connect 3 3 41 0;
#X connect 3 3 43 0;
#X connect 3 4 42 0;
#X connect 3 4 44 0;
#X connect 4 0 12 0;
#X connect 4 0 19 0;
#X connect 4 0 46 0;
#X connect 4 0 48 0;
#X connect 4 1 13 0;
#X connect 4 1 19 1;
#X connect 4 1 47 0;
#X connect 4 1 45 0;
#X connect 11 0 14 0;
#X connect 12 0 11 0;
#X connect 13 0 11 0;
#X connect 14 0 54 0;
#X connect 14 0 56 0;
#X connect 15 0 14 1;
#X connect 19 0 21 0;
#X connect 20 0 54 0;
#X connect 20 0 56 0;
#X connect 21 0 20 0;
#X connect 22 0 20 1;
#X connect 23 0 10 0;
#X connect 23 0 31 0;
#X connect 25 0 24 0;
#X connect 25 0 32 0;
#X connect 27 0 26 0;
#X connect 27 0 33 0;
#X connect 28 0 1 0;
#X connect 29 0 93 0;
#X connect 30 0 94 0;
#X connect 31 0 3 0;
#X connect 32 0 3 0;
#X connect 33 0 3 0;
#X connect 34 0 95 0;
#X connect 35 0 37 0;
#X connect 35 0 39 0;
#X connect 36 0 38 0;
#X connect 36 0 40 0;
#X connect 39 0 3 0;
#X connect 40 0 3 0;
#X connect 43 0 96 0;
#X connect 44 0 97 0;
#X connect 45 0 56 0;
#X connect 46 0 54 0;
#X connect 47 0 56 0;
#X connect 48 0 54 0;
#X connect 49 0 48 1;
#X connect 50 0 47 1;
#X connect 51 0 46 1;
#X connect 51 0 45 1;
#X connect 52 0 45 1;
#X connect 52 0 46 1;
#X connect 53 0 23 0;
#X connect 53 1 25 0;
#X connect 53 2 27 0;
#X connect 53 3 35 0;
#X connect 53 4 36 0;
#X connect 53 5 59 0;
#X connect 54 0 55 0;
#X connect 56 0 55 1;
#X connect 58 0 62 0;
#X connect 59 0 58 0;
#X connect 60 0 61 0;
#X connect 61 0 59 1;
#X connect 63 0 54 1;
#X connect 63 0 56 1;
#X connect 67 0 68 0;
#X connect 68 0 113 0;
#X connect 68 0 140 0;
#X connect 69 0 88 0;
#X connect 70 0 84 0;
#X connect 71 0 85 0;
#X connect 72 0 86 0;
#X connect 73 0 76 0;
#X connect 74 0 76 0;
#X connect 75 0 76 0;
#X connect 76 0 70 0;
#X connect 76 1 71 0;
#X connect 76 2 72 0;
#X connect 77 0 87 0;
#X connect 78 0 77 0;
#X connect 79 0 77 0;
#X connect 80 0 77 0;
#X connect 81 0 83 0;
#X connect 81 1 82 0;
#X connect 82 0 69 0;
#X connect 83 0 69 0;
#X connect 89 0 52 0;
#X connect 90 0 91 0;
#X connect 91 0 62 0;
#X connect 98 0 1 0;
#X connect 99 0 104 0;
#X connect 100 0 103 0;
#X connect 101 0 103 0;
#X connect 104 0 103 0;
#X connect 105 0 88 0;
#X connect 106 0 105 0;
#X connect 108 0 107 0;
#X connect 109 0 114 0;
#X connect 109 1 123 0;
#X connect 109 2 124 0;
#X connect 110 0 132 0;
#X connect 111 0 112 0;
#X connect 112 0 110 0;
#X connect 113 0 53 0;
#X connect 113 1 135 0;
#X connect 113 2 109 0;
#X connect 114 0 110 0;
#X connect 115 0 116 0;
#X connect 116 0 125 1;
#X connect 117 0 119 0;
#X connect 120 1 122 0;
#X connect 121 0 117 0;
#X connect 122 0 121 0;
#X connect 122 0 125 1;
#X connect 123 0 125 0;
#X connect 124 0 125 0;
#X connect 125 0 120 0;
#X connect 126 0 123 0;
#X connect 127 0 23 0;
#X connect 127 1 35 0;
#X connect 127 2 36 0;
#X connect 130 0 28 0;
#X connect 131 0 104 0;
#X connect 132 0 133 0;
#X connect 132 1 134 0;
#X connect 133 0 108 0;
#X connect 134 0 108 0;
#X connect 135 0 81 0;
#X connect 135 0 105 0;
#X connect 135 1 73 0;
#X connect 135 1 78 0;
#X connect 135 2 74 0;
#X connect 135 2 80 0;
#X connect 135 3 75 0;
#X connect 135 3 79 0;
#X connect 135 4 137 0;
#X connect 137 0 136 0;
#X connect 138 0 67 0;
#X connect 138 0 118 0;
#X coords 0 -1 1 1 350 150 1 0 0;
